<?xml version="1.0" standalone="no"?>
<!DOCTYPE svg PUBLIC "-//W3C//DTD SVG 1.1//EN" "http://www.w3.org/Graphics/SVG/1.1/DTD/svg11.dtd" >
<svg xmlns="http://www.w3.org/2000/svg">
<metadata></metadata>
<defs>
<font id="blanchcaps_inline" horiz-adv-x="643" >
<font-face units-per-em="2048" ascent="1434" descent="-614" />
<missing-glyph horiz-adv-x="294" />
<glyph horiz-adv-x="2048" />
<glyph horiz-adv-x="2048" />
<glyph unicode="&#xd;" horiz-adv-x="2048" />
<glyph unicode=" "  horiz-adv-x="294" />
<glyph unicode="&#x09;" horiz-adv-x="294" />
<glyph unicode="&#xa0;" horiz-adv-x="294" />
<glyph unicode="!" horiz-adv-x="301" d="M59 37q0 13 9.5 23t23.5 10h66q13 0 22.5 -9.5t9.5 -23.5v-135q0 -14 -9.5 -23.5t-22.5 -9.5h-66q-14 0 -23.5 9.5t-9.5 23.5v135zM59 231v748q0 13 9.5 23t23.5 10h66q13 0 22.5 -9.5t9.5 -23.5v-748q0 -13 -9 -22.5t-23 -9.5h-66q-14 0 -23.5 9.5t-9.5 22.5zM115 6v-74 q0 -8 8 -8h4q8 0 8 8v74q0 10 -8 10h-4q-8 0 -8 -10zM115 262q0 -8 8 -8h4q8 0 8 8v682q0 10 -8 10h-4q-8 0 -8 -10v-682z" />
<glyph unicode="#" horiz-adv-x="1085" d="M39 276v66q0 13 10.5 23t22.5 10h213v262h-213q-12 0 -22.5 10t-10.5 23v63q0 13 10.5 23t22.5 10h213v213q0 13 10 23t22 10h66q13 0 23 -10t10 -23v-213h131v213q0 13 9.5 23t23.5 10h65q12 0 22.5 -10t10.5 -23v-213h213q12 0 22.5 -9.5t10.5 -21.5v-65 q0 -13 -10.5 -23t-22.5 -10h-213v-262h213q12 0 22.5 -10t10.5 -23v-66q0 -12 -10.5 -22t-22.5 -10h-213v-211q0 -13 -10.5 -23t-22.5 -10h-65q-14 0 -23.5 10t-9.5 23v211h-131v-211q0 -13 -10 -23t-23 -10h-66q-12 0 -22 10t-10 23v211h-213q-12 0 -22.5 10t-10.5 22z M94 307q0 -8 8 -8h238v-238q0 -8 8 -8h4q10 0 10 8v238h238v-238q0 -8 10 -8h4q9 0 9 8v238h237q8 0 8 8v4q0 11 -8 11h-237v368h237q8 0 8 8v7q0 8 -8 8h-237v237q0 8 -9 8h-4q-10 0 -10 -8v-237h-238v237q0 8 -10 8h-4q-8 0 -8 -8v-237h-238q-8 0 -8 -8v-7q0 -8 8 -8h238 v-368h-238q-8 0 -8 -11v-4zM362 322v368h238v-368h-238zM416 375h131v262h-131v-262z" />
<glyph unicode="$" horiz-adv-x="641" d="M59 238v69q0 13 9.5 23t23.5 10h66q12 0 22 -10t10 -23v-69q0 -43 31 -74t74 -31t73.5 31t30.5 74q0 26 -4 34l-289 379q-35 47 -41 64t-6 67q0 79 48 142.5t122 85.5v102q0 14 9.5 23.5t23.5 9.5h66q13 0 22.5 -9.5t9.5 -23.5v-102q74 -22 122 -85.5t48 -142.5v-69 q0 -14 -9.5 -23.5t-22.5 -9.5h-66q-12 0 -22.5 10t-10.5 23v69q0 43 -30.5 74t-73.5 31t-74 -31t-31 -74q0 -24 5 -34l288 -379q35 -50 41 -66t6 -65q0 -81 -47.5 -143.5t-122.5 -84.5v-102q0 -14 -9.5 -23.5t-22.5 -9.5h-66q-14 0 -23.5 9.5t-9.5 23.5v102 q-75 22 -122.5 84.5t-47.5 143.5zM113 233q0 -72 50 -124.5t122 -57.5v-112q0 -9 8 -9h4q8 0 8 9v112q69 6 119 53q53 53 53 129v3v24q0 17 -12 37l-322 430q-8 12 -8 25v24v2q0 66 47 113t113 47t113 -47t47 -113v-39q0 -10 8 -10h4q10 0 10 10v39q0 72 -50 124.5 t-122 55.5v123q0 9 -8 9h-4q-8 0 -8 -9v-123q-68 -3 -119 -51q-53 -53 -53 -129v-2v2v-2v-24q0 -21 12 -37l321 -430q9 -13 9 -25v-24v-3v3v-3q0 -66 -47 -112.5t-113 -46.5t-113 46.5t-47 112.5v39q0 9 -8 9h-4q-10 0 -10 -9v-39z" />
<glyph unicode="%" horiz-adv-x="1159" d="M59 778v2q2 97 71 165.5t167 68.5q97 0 165 -68.5t70 -165.5v-2q-2 -97 -70.5 -166t-164.5 -69q-98 0 -167 69t-71 166zM115 778q0 -75 53.5 -127.5t128.5 -52.5q74 0 127 52.5t53 127.5v2q0 73 -53 125.5t-127 52.5q-75 0 -128.5 -52.5t-53.5 -125.5v-2zM137 778 q0 66 47 113t113 47q65 0 112 -47t48 -113q-1 -66 -48 -111.5t-112 -45.5q-66 0 -113 45.5t-47 111.5zM190 778q2 -43 33 -73.5t74 -30.5t73.5 30.5t30.5 73.5t-30.5 74t-73.5 31t-74 -31t-33 -74zM317 33v203q0 49 6.5 65t43.5 66l286 378q6 8 6 35v201q0 13 9.5 23 t23.5 10h66q14 0 23.5 -10t9.5 -23v-201q0 -50 -6.5 -66.5t-43.5 -64.5l-286 -381q-6 -6 -6 -32v-203q0 -12 -10 -22.5t-23 -10.5h-66q-12 0 -22.5 10.5t-10.5 22.5zM373 63q0 -8 8 -8h6q8 0 8 8v199q0 13 8 25l320 428q12 15 12 39v196q0 8 -8 8h-4q-8 0 -8 -8v-196 q0 -13 -8 -25l-322 -430q-12 -20 -12 -37v-199zM578 236v2q0 97 69 165t166 68t166.5 -68.5t69.5 -164.5v-2q0 -97 -69.5 -166.5t-166.5 -69.5t-166 69.5t-69 166.5zM631 236q2 -75 54.5 -128t127.5 -53q74 0 127.5 53t54.5 128v2q-1 73 -54.5 125.5t-127.5 52.5 q-75 0 -127.5 -52t-54.5 -126v-2zM653 236q0 66 47 112.5t113 46.5q65 0 112 -46.5t48 -112.5q-1 -66 -48 -112t-112 -46q-66 0 -113 46t-47 112zM709 236q0 -43 30.5 -74t73.5 -31t74 31t31 74t-31 73.5t-74 30.5t-73.5 -30.5t-30.5 -73.5z" />
<glyph unicode="&#x26;" horiz-adv-x="759" d="M59 236v202q0 99 74 170q-74 71 -74 172q0 97 70 166.5t168 69.5h68q13 0 22.5 -9.5t9.5 -23.5v-65q0 -14 -9.5 -23.5t-22.5 -9.5h-68q-44 0 -75.5 -31t-31.5 -74q0 -44 31.5 -75t75.5 -31h104v104q0 14 9.5 23.5t23.5 9.5h66q13 0 22.5 -9.5t9.5 -23.5v-104h107 q12 0 22.5 -10t10.5 -23v-66q0 -13 -10.5 -22.5t-22.5 -9.5h-107v-510q0 -14 -9.5 -23.5t-22.5 -9.5h-203q-98 0 -168 69.5t-70 166.5zM115 236q0 -75 53.5 -129t128.5 -54h172q8 0 8 10v535h131q8 0 8 8v4q0 11 -8 11h-131v129q0 8 -8 8h-4q-8 0 -8 -8v-129h-160 q-66 0 -113 46.5t-47 112.5v-2q0 67 47 114.5t113 47.5h37q10 0 10 8v4q0 9 -10 9h-37q-75 0 -128.5 -54t-53.5 -129v2q0 -59 32.5 -105t85.5 -67q-53 -19 -85.5 -65.5t-32.5 -104.5v-202zM137 236v202q0 65 45 113q47 47 115 47h160v-522h-160q-66 0 -113 47t-47 113z M190 236q0 -43 31.5 -74t75.5 -31h104v412h-104q-44 0 -75.5 -31t-31.5 -74v-202z" />
<glyph unicode="'" horiz-adv-x="301" d="M59 713v399q0 14 9.5 23.5t23.5 9.5h66q13 0 22.5 -9.5t9.5 -23.5v-399q0 -14 -9.5 -23.5t-22.5 -9.5h-66q-14 0 -23.5 10t-9.5 23zM115 743q0 -8 8 -8h4q8 0 8 8v338q0 9 -8 9h-4q-8 0 -8 -9v-338z" />
<glyph unicode="(" horiz-adv-x="438" d="M59 236v540q0 98 69.5 167t166.5 69q13 0 23 -10t10 -23v-66q0 -12 -10 -21t-23 -9q-43 0 -74 -31.5t-31 -75.5v-540q0 -44 31 -75.5t74 -31.5q13 0 23 -9.5t10 -23.5v-63q0 -13 -10 -23t-23 -10q-97 0 -166.5 69t-69.5 167zM115 236q0 -67 42.5 -118t106.5 -63 q10 0 10 8v5q0 10 -10 10q-54 11 -90.5 55.5t-36.5 102.5v536q0 58 36.5 102.5t90.5 53.5q10 3 10 10v6q0 9 -10 6q-64 -11 -106.5 -61t-42.5 -117v-536z" />
<glyph unicode=")" horiz-adv-x="436" d="M59 33v63q0 14 9.5 23.5t23.5 9.5q43 0 74 31.5t31 75.5v540q0 44 -31 75.5t-74 31.5q-13 0 -23 9t-10 21v66q0 13 9.5 23t23.5 10q97 0 166.5 -69t69.5 -167v-540q0 -98 -69.5 -167t-166.5 -69q-14 0 -23.5 10t-9.5 23zM115 63q0 -8 8 -8q65 12 107 63t42 118v536 q0 67 -42 117t-107 61q-3 1 -5.5 -1t-2.5 -5v-6q0 -6 8 -10q56 -9 92.5 -53.5t36.5 -102.5v-536q0 -58 -36.5 -102.5t-92.5 -55.5q-8 0 -8 -10v-5z" />
<glyph unicode="+" horiz-adv-x="569" d="M59 471v66q0 13 9.5 22.5t23.5 9.5h103v103q0 14 9.5 23.5t22.5 9.5h66q13 0 23 -9.5t10 -23.5v-103h102q14 0 23.5 -9.5t9.5 -22.5v-66q0 -13 -9.5 -23t-23.5 -10h-102v-102q0 -14 -10 -23.5t-23 -9.5h-66q-13 0 -22.5 9.5t-9.5 23.5v102h-103q-14 0 -23.5 10t-9.5 23z M113 502q0 -10 8 -10h127v-125q0 -11 10 -11h4q8 0 8 11v125h127q9 0 9 10v4q0 8 -9 8h-127v127q0 8 -8 8h-4q-10 0 -10 -8v-127h-127q-8 0 -8 -8v-4z" />
<glyph unicode="," horiz-adv-x="301" d="M59 168q0 14 9.5 23.5t23.5 9.5h66q13 0 22.5 -9.5t9.5 -23.5v-399q0 -14 -9.5 -23.5t-22.5 -9.5h-66q-14 0 -23.5 10t-9.5 23v399zM115 137v-338q0 -8 8 -8h4q8 0 8 8v338q0 8 -8 8h-4q-8 0 -8 -8z" />
<glyph unicode="-" horiz-adv-x="571" d="M59 471v66q0 12 10 22t23 10h336q13 0 23 -10t10 -22v-66q0 -13 -9.5 -23t-23.5 -10h-336q-14 0 -23.5 10t-9.5 23zM115 500q0 -8 8 -8h276q9 0 9 8v6q0 8 -9 8h-276q-8 0 -8 -8v-6z" />
<glyph unicode="." horiz-adv-x="301" d="M59 33v135q0 14 9.5 23.5t23.5 9.5h66q13 0 22.5 -9.5t9.5 -23.5v-135q0 -14 -9.5 -23.5t-22.5 -9.5h-66q-14 0 -23.5 10t-9.5 23zM115 63q0 -8 8 -8h4q8 0 8 8v74q0 10 -8 10h-4q-8 0 -8 -10v-74z" />
<glyph unicode="/" d="M59 33v203q0 49 6.5 65t43.5 66l286 378q6 8 6 35v201q0 13 9.5 23t23.5 10h66q12 0 22 -10t10 -23v-201q0 -51 -6 -67.5t-43 -63.5l-286 -381q-7 -7 -7 -32v-203q0 -12 -9.5 -22.5t-22.5 -10.5h-66q-13 0 -23 10.5t-10 22.5zM115 63q0 -8 8 -8h4q8 0 8 8v199q0 13 8 25 l322 428q12 20 12 39v196q0 8 -8 8h-4q-10 0 -10 -8v-196q0 -12 -9 -25l-319 -430q-12 -15 -12 -37v-199z" />
<glyph unicode="0" horiz-adv-x="641" d="M59 236v2v540q0 97 69 166.5t167 69.5q97 0 166 -68.5t69 -165.5v-542q0 -99 -68.5 -168.5t-166.5 -69.5q-97 0 -166.5 69.5t-69.5 166.5zM113 238q0 -75 53.5 -129t128.5 -54t128.5 54t53.5 129v540q0 75 -53.5 127.5t-128.5 52.5t-128.5 -52.5t-53.5 -127.5v-540z M135 238v6q0 35 17 57l280 373l6 8q3 4 9 10.5t8 9.5v-464q0 -66 -47 -113t-113 -47t-113 47t-47 113zM135 313v465q0 66 47 113t113 47t113 -47t47 -113v-14q0 -26 -17 -51l-280 -371l-6 -8q-3 -4 -9 -11t-8 -10zM190 238q0 -44 31 -75.5t74 -31.5t73.5 31.5t30.5 75.5v301 l-202 -271q-7 -7 -7 -30zM190 475l205 270q4 8 4 33q0 43 -30.5 74t-73.5 31t-74 -31t-31 -74v-303z" />
<glyph unicode="1" horiz-adv-x="440" d="M59 915v66q0 13 9.5 23t23.5 10h172q27 0 46.5 -19.5t19.5 -46.5v-915q0 -12 -10.5 -22.5t-22.5 -10.5h-66q-13 0 -22.5 10.5t-9.5 22.5v850h-107q-14 0 -23.5 9.5t-9.5 22.5zM115 946q0 -8 8 -8h129v-875q0 -8 8 -8h6q8 0 8 8v885q0 10 -10 10h-141q-8 0 -8 -8v-4z" />
<glyph unicode="2" d="M59 33v200q0 49 6.5 65.5t43.5 66.5l286 378q6 8 6 35q0 43 -31 74t-75 31q-43 0 -74 -31t-31 -74v-71q0 -12 -9.5 -22.5t-22.5 -10.5h-66q-13 0 -23 10.5t-10 22.5v71q0 97 69.5 166.5t166.5 69.5q98 0 167.5 -69.5t69.5 -166.5q0 -51 -6 -67.5t-43 -63.5l-286 -381 q-7 -7 -7 -33v-102h310q13 0 22.5 -9.5t9.5 -23.5v-65q0 -12 -9.5 -22.5t-22.5 -10.5h-408q-13 0 -23 10.5t-10 22.5zM115 63q0 -8 8 -8h346q8 0 8 8v7q0 8 -8 8h-334v155v15v10q0 15 8 27l322 428q12 20 12 39v24v2q0 77 -53 127q-53 53 -129 53q-75 0 -127.5 -52.5 t-52.5 -127.5v-41q0 -8 8 -8h4q8 0 8 8v41q0 66 47 113t113 47t113 -47t47 -113v-2v-24q0 -12 -9 -25l-319 -430q-12 -15 -12 -39v-10v-15v-155v-15z" />
<glyph unicode="3" d="M59 238v69q0 13 9.5 23t23.5 10h66q13 0 22.5 -9.5t9.5 -23.5v-69q0 -44 31 -75.5t74 -31.5q44 0 75 31.5t31 75.5v100q0 43 -31 73.5t-75 30.5q-13 0 -23 10t-10 23v66q0 13 9.5 22.5t23.5 9.5q44 0 75 31.5t31 75.5v98q0 43 -31 74t-75 31q-43 0 -74 -31t-31 -74v-71 q0 -12 -9.5 -22.5t-22.5 -10.5h-66q-13 0 -23 10.5t-10 22.5v71q0 97 69.5 166.5t166.5 69.5q98 0 167.5 -69.5t69.5 -166.5v-98q0 -102 -73 -172q73 -70 73 -170v-100q0 -98 -69.5 -168t-167.5 -70q-97 0 -166.5 70t-69.5 168zM115 240q0 -75 52.5 -129t127.5 -54t128.5 54 t53.5 129v98q0 58 -33.5 104.5t-87.5 65.5q55 21 88 67t33 105v98q0 75 -53.5 127.5t-128.5 52.5t-127.5 -52.5t-52.5 -127.5v-41q0 -8 8 -8h4q8 0 8 8v41q0 66 47 113t113 47t113 -47t47 -113v-98q0 -58 -36.5 -102.5t-92.5 -55.5q-3 0 -6 -3.5t-3 -6.5v-8q0 -6 9 -10 q56 -11 92.5 -54.5t36.5 -101.5v-98q0 -66 -47 -113t-113 -47t-113 47t-47 113v36q0 9 -8 9h-4q-8 0 -8 -9v-36z" />
<glyph unicode="4" horiz-adv-x="780" d="M59 344v98q0 43 7 59.5t43 65.5l286 379q6 8 6 35q0 13 9.5 23t23.5 10h66q13 0 22.5 -9.5t9.5 -23.5q0 -49 -6 -65t-43 -66l-286 -379q-7 -9 -7 -29h211v105q0 13 9.5 23t23.5 10h66q13 0 22.5 -9.5t9.5 -23.5v-105h105q14 0 23.5 -9.5t9.5 -22.5v-66q0 -14 -10 -23.5 t-23 -9.5h-105v-278q0 -12 -9.5 -22.5t-22.5 -10.5h-66q-13 0 -23 10.5t-10 22.5v278h-309q-14 0 -23.5 9.5t-9.5 23.5zM115 371q0 -9 8 -9h332v-303q0 -10 10 -10h4q8 0 8 10v303h129q8 0 8 9v4q0 8 -8 8h-129v129q0 8 -8 8h-4q-10 0 -10 -8v-129h-320v74q0 16 8 24 l322 430q12 20 12 39v6q0 9 -8 9h-4q-10 0 -10 -9v-6q0 -15 -9 -24l-319 -430q-12 -15 -12 -39v-86z" />
<glyph unicode="5" d="M59 238v69q0 13 9.5 23t23.5 10h66q13 0 22.5 -9.5t9.5 -23.5v-69q0 -44 31.5 -75.5t75.5 -31.5q43 0 73.5 31.5t30.5 75.5v200q0 43 -30.5 74t-73.5 31h-205q-13 0 -23 10t-10 22v406q0 13 9.5 23t23.5 10h408q13 0 22.5 -9.5t9.5 -23.5v-66q0 -13 -9 -22.5t-23 -9.5 h-310v-209h107q97 0 166 -69t69 -167v-200q0 -98 -69 -168t-166 -70q-98 0 -168 70t-70 168zM115 238q0 -75 53.5 -129t128.5 -54t127.5 54t52.5 129v200q0 75 -52.5 129t-127.5 54h-160v317h332q8 0 8 8v4q0 8 -8 8h-346q-8 0 -8 -8v-344q0 -8 8 -8h174q66 0 113 -47 t47 -113v-200q0 -66 -47 -113t-113 -47t-113 47t-47 113v38q0 9 -10 9h-4q-8 0 -8 -9v-38z" />
<glyph unicode="6" d="M59 238v540q0 97 70 166.5t168 69.5q97 0 166 -69.5t69 -166.5q0 -14 -9.5 -23.5t-22.5 -9.5h-66q-14 0 -23.5 9.5t-9.5 23.5q0 43 -30.5 74t-73.5 31q-44 0 -75.5 -31t-31.5 -74v-129q52 25 107 25q97 0 166 -69t69 -167v-200q0 -98 -69 -168t-166 -70q-98 0 -168 70 t-70 168zM115 238q0 -75 53.5 -129t128.5 -54t127.5 54t52.5 129v200q0 75 -52.5 129t-127.5 54q-51 0 -93.5 -26.5t-66.5 -70.5v254q0 66 47 113t113 47q58 0 101.5 -37.5t54.5 -93.5q4 -8 10 -8h4q11 0 8 10q-11 64 -61 106.5t-117 42.5q-75 0 -128.5 -52.5t-53.5 -127.5 v-540zM137 238v200q0 66 47 113t113 47t113 -47t47 -113v-200q0 -66 -47 -113t-113 -47t-113 47t-47 113zM190 238q0 -44 31.5 -75.5t75.5 -31.5q43 0 73.5 31.5t30.5 75.5v200q0 43 -30.5 74t-73.5 31q-44 0 -75.5 -31t-31.5 -74v-200z" />
<glyph unicode="7" horiz-adv-x="641" d="M59 33v203q0 49 6 65t41 66l289 378q4 8 4 35v103h-307q-14 0 -23.5 9.5t-9.5 22.5v66q0 13 9.5 23t23.5 10h406q13 0 22.5 -9.5t9.5 -23.5v-66v-135q0 -51 -6 -67.5t-41 -63.5l-288 -381q-5 -8 -5 -32v-203q0 -12 -10 -22.5t-22 -10.5h-66q-13 0 -23 10.5t-10 22.5z M113 63q0 -8 10 -8h4q8 0 8 8v197q0 15 8 27l322 428q12 20 12 39v196q0 8 -10 8h-346q-8 0 -8 -8v-4q0 -8 8 -8h334v-184q0 -16 -9 -25l-319 -430q-14 -17 -14 -39v-197z" />
<glyph unicode="8" horiz-adv-x="641" d="M59 238v200q0 101 72 170q-72 72 -72 170v2q0 97 69.5 165.5t166.5 68.5t166 -68.5t69 -165.5v-2q0 -99 -71 -170q71 -68 71 -170v-200q0 -99 -68.5 -168.5t-166.5 -69.5t-167 70t-69 168zM113 238q0 -75 53.5 -129t128.5 -54t128.5 54t53.5 129v200q0 58 -34 104.5 t-87 65.5q53 21 86.5 66.5t34.5 103.5v2q-2 74 -54.5 126t-127.5 52q-74 0 -127.5 -52.5t-54.5 -125.5v-2q1 -58 34 -104t86 -66q-53 -19 -86.5 -65.5t-33.5 -104.5v-200zM135 238v200q0 66 47 113t113 47t113 -47t47 -113v-200q0 -66 -47 -113t-113 -47t-113 47t-47 113z M135 778q1 66 48 113t112 47q66 0 113 -47t47 -113t-47 -111.5t-113 -45.5q-65 0 -112 45.5t-48 111.5zM190 238q0 -44 31 -75.5t74 -31.5t73.5 31.5t30.5 75.5v200q0 43 -30.5 74t-73.5 31t-74 -31t-31 -74v-200zM190 778q0 -43 31 -73.5t74 -30.5t73.5 30.5t30.5 73.5 t-30.5 74t-73.5 31t-74 -31t-31 -74z" />
<glyph unicode="9" horiz-adv-x="641" d="M59 238q0 13 9.5 22.5t23.5 9.5h66q14 0 23 -9t9 -23q0 -44 31 -75.5t74 -31.5t74.5 31.5t31.5 75.5v229q-59 -25 -106 -25q-97 0 -166.5 70t-69.5 168v98q0 97 69.5 166.5t166.5 69.5q98 0 167.5 -69.5t69.5 -166.5v-540q0 -98 -69.5 -168t-167.5 -70q-97 0 -166.5 70 t-69.5 168zM113 680q0 -75 53.5 -128.5t128.5 -53.5q51 0 93.5 26t66.5 68v-354q0 -66 -47 -113t-113 -47q-58 0 -101.5 36.5t-54.5 92.5q-4 8 -10 8h-6q-3 0 -5 -2.5t-1 -5.5q11 -65 61 -108.5t117 -43.5q75 0 128.5 54t53.5 129v540q0 75 -53.5 127.5t-128.5 52.5 t-128.5 -52.5t-53.5 -127.5v-98zM135 680v98q0 66 47 113t113 47t113 -47t47 -113v-98q0 -66 -47 -113t-113 -47t-113 47t-47 113zM190 680q0 -44 31 -75.5t74 -31.5t74.5 31.5t31.5 75.5v98q0 43 -31.5 74t-74.5 31t-74 -31t-31 -74v-98z" />
<glyph unicode=":" horiz-adv-x="301" d="M59 33v135q0 14 9.5 23.5t23.5 9.5h66q13 0 22.5 -9.5t9.5 -23.5v-135q0 -14 -9.5 -23.5t-22.5 -9.5h-66q-14 0 -23.5 10t-9.5 23zM59 528v136q0 13 9.5 22.5t23.5 9.5h66q14 0 23 -9t9 -23v-136q0 -14 -9 -23t-23 -9h-66q-14 0 -23.5 9.5t-9.5 22.5zM115 63q0 -8 8 -8h4 q8 0 8 8v74q0 10 -8 10h-4q-8 0 -8 -10v-74zM115 559q0 -8 8 -8h4q8 0 8 8v74q0 10 -8 10h-4q-8 0 -8 -10v-74z" />
<glyph unicode=";" horiz-adv-x="301" d="M59 168q0 14 9.5 23.5t23.5 9.5h66q13 0 22.5 -9.5t9.5 -23.5v-399q0 -14 -9.5 -23.5t-22.5 -9.5h-66q-14 0 -23.5 10t-9.5 23v399zM59 528v136q0 13 9.5 22.5t23.5 9.5h66q14 0 23 -9t9 -23v-136q0 -14 -9 -23t-23 -9h-66q-14 0 -23.5 9.5t-9.5 22.5zM115 137v-338 q0 -8 8 -8h4q8 0 8 8v338q0 8 -8 8h-4q-8 0 -8 -8zM115 559q0 -8 8 -8h4q8 0 8 8v74q0 10 -8 10h-4q-8 0 -8 -10v-74z" />
<glyph unicode="=" horiz-adv-x="571" d="M59 342v66q0 12 10 22t23 10h336q13 0 23 -10t10 -22v-66q0 -14 -9.5 -23.5t-23.5 -9.5h-336q-14 0 -23.5 9.5t-9.5 23.5zM59 602v66q0 12 10 22t23 10h336q13 0 23 -10t10 -22v-66q0 -14 -9.5 -23.5t-23.5 -9.5h-336q-14 0 -23.5 9.5t-9.5 23.5zM115 371q0 -9 8 -9h276 q3 0 6 3t3 6v6q0 8 -9 8h-276q-8 0 -8 -8v-6zM115 631q0 -8 8 -8h276q9 0 9 8v6q0 8 -9 8h-276q-8 0 -8 -8v-6z" />
<glyph unicode="?" horiz-adv-x="641" d="M59 43q0 13 9.5 23t23.5 10h66q13 0 22.5 -9.5t9.5 -23.5v-135q0 -14 -9.5 -23.5t-22.5 -9.5h-66q-14 0 -23.5 9.5t-9.5 23.5v135zM59 238q0 49 6.5 65t43.5 66l286 379q6 8 6 34q0 43 -31 74t-75 31q-43 0 -74 -31t-31 -74v-71q0 -12 -9.5 -22.5t-22.5 -10.5h-66 q-13 0 -23 10.5t-10 22.5v71q0 97 69.5 166.5t166.5 69.5q98 0 167.5 -69.5t69.5 -166.5q0 -51 -6 -67.5t-43 -63.5l-286 -381q-7 -9 -7 -32q0 -14 -9.5 -23.5t-22.5 -9.5h-66q-14 0 -23.5 9.5t-9.5 23.5zM115 12v-75q0 -9 8 -9h4q8 0 8 9v75q0 8 -8 8h-4q-8 0 -8 -8z M115 268q0 -10 6 -10h6q6 0 10 8q5 16 6 17l322 430q12 20 12 39v12v12q0 76 -53 129t-129 53q-74 0 -127 -53.5t-53 -128.5v-39q0 -8 8 -8h4q8 0 8 8v39q0 66 47 113t113 47t113 -46t47 -112v-2v-12v-12q0 -16 -9 -25l-319 -430q-8 -11 -12 -29zM477 774v2v-2z" />
<glyph unicode="@" horiz-adv-x="1236" d="M59 236v540q0 98 69.5 167t166.5 69h430q97 0 166.5 -69t69.5 -167v-325q0 -98 -69.5 -168t-166.5 -70h-78q-13 0 -23 10.5t-10 22.5v182h-208v-180v-2q0 -12 -10.5 -22.5t-22.5 -10.5h-66q-13 0 -23 10.5t-10 22.5v2v315q0 97 69 166.5t167 69.5t166.5 -69.5 t68.5 -166.5v-217q37 7 60.5 37t23.5 68v325q0 43 -30.5 74t-73.5 31h-430q-43 0 -74 -31t-31 -74v-540q0 -43 31 -74t74 -31h328q13 0 22.5 -10.5t9.5 -22.5v-65q0 -14 -9.5 -23.5t-22.5 -9.5h-328q-97 0 -166.5 69t-69.5 167zM115 236q0 -75 52.5 -129t127.5 -54h297 q10 0 10 10v5q0 8 -10 8h-297q-66 0 -113 47t-47 113v540q0 66 47 113t113 47h430q66 0 113 -47t47 -113v-325q0 -66 -47 -113t-113 -47h-33v272q0 74 -53.5 127t-128.5 53t-128.5 -53t-53.5 -127v-287q0 -8 10 -8h4q8 0 8 8v207h320v-207q0 -8 8 -8h47q75 0 127.5 54 t52.5 129v325q0 75 -52.5 128.5t-127.5 53.5h-430q-75 0 -127.5 -53.5t-52.5 -128.5v-540zM340 246v2v-2zM350 506v57q0 65 47 111.5t113 46.5t113 -46.5t47 -111.5v-57h-320zM406 559h208v4q0 43 -30.5 74t-73.5 31t-73.5 -31t-30.5 -74v-4z" />
<glyph unicode="A" d="M59 33v743q0 97 70 166.5t168 69.5q97 0 166 -69.5t69 -166.5v-743q0 -14 -9.5 -23.5t-22.5 -9.5h-66q-14 0 -23.5 10t-9.5 23v407h-211v-407q0 -14 -9.5 -23.5t-22.5 -9.5h-66q-14 0 -23.5 10t-9.5 23zM115 61q0 -8 8 -8h4q10 0 10 8v435h320v-435q0 -8 8 -8h4q8 0 8 8 v715q0 75 -52.5 128.5t-127.5 53.5t-128.5 -53.5t-53.5 -128.5v-715zM137 518v258q0 66 47 113t113 47t113 -47t47 -113v-258h-320zM190 571h211v205q0 43 -30.5 74t-73.5 31q-44 0 -75.5 -31t-31.5 -74v-205z" />
<glyph unicode="B" d="M59 66v882q0 28 19 47t47 19h172q97 0 166 -70t69 -168v-98q0 -103 -73 -170q73 -67 73 -172v-98q0 -98 -69 -168t-166 -70h-172q-27 0 -46.5 19.5t-19.5 46.5zM115 66q0 -11 10 -11h172q75 0 128.5 54t53.5 129v98q0 59 -33.5 105t-87.5 67q53 19 87 65.5t34 104.5v98 q0 75 -53.5 128.5t-128.5 53.5h-172q-10 0 -10 -10v-882zM137 78v418h160q66 0 113 -47t47 -113v-98q0 -66 -47 -113t-113 -47h-160zM137 518v420h160q66 0 113 -47.5t47 -114.5v-98q0 -66 -47 -113t-113 -47h-160zM190 133h107q43 0 73.5 31t30.5 74v98q0 44 -30.5 75 t-73.5 31h-107v-309zM190 573h107q43 0 73.5 31t30.5 74v98q0 44 -30.5 75.5t-73.5 31.5h-107v-310z" />
<glyph unicode="C" horiz-adv-x="620" d="M59 236v542q0 97 69 166.5t167 69.5q97 0 166 -69.5t69 -166.5v-69q0 -14 -9.5 -23.5t-22.5 -9.5h-66q-14 0 -23.5 10t-9.5 23v69q0 43 -30.5 74t-73.5 31t-74 -31t-31 -74v-542q0 -43 31 -74t74 -31t73.5 31t30.5 74v75q0 13 9.5 23t23.5 10h66q13 0 22.5 -9.5 t9.5 -23.5v-75q0 -97 -69 -166.5t-166 -69.5q-98 0 -167 69.5t-69 166.5zM113 236q0 -75 53.5 -128t128.5 -53t127.5 53t52.5 128v45q0 10 -8 10h-4q-10 0 -10 -10v-45q0 -66 -46 -113t-112 -47t-113 47t-47 113v542q0 66 47 112t113 46t112 -46t46 -112v-16v-23 q0 -10 10 -10h4q8 0 8 10v23v16q0 75 -52.5 127.5t-127.5 52.5t-128.5 -52.5t-53.5 -127.5v-542z" />
<glyph unicode="D" d="M59 66v882q0 27 19.5 46.5t46.5 19.5h172q98 0 166.5 -69.5t68.5 -168.5v-538q0 -99 -68.5 -168.5t-166.5 -69.5h-172q-26 0 -46 20t-20 46zM115 66q0 -11 10 -11h172q75 0 128.5 54t53.5 129v538q0 75 -53.5 128.5t-128.5 53.5h-172q-10 0 -10 -10v-882zM137 78v860h160 q66 0 113 -47.5t47 -114.5v-538q0 -66 -47 -113t-113 -47h-160zM190 133h107q43 0 73.5 31t30.5 74v538q0 44 -30.5 75.5t-73.5 31.5h-107v-750z" />
<glyph unicode="E" horiz-adv-x="512" d="M59 66v882q0 28 19 47t47 19h244q13 0 22.5 -9.5t9.5 -23.5v-66q0 -13 -9.5 -22.5t-22.5 -9.5h-179v-310h179q13 0 22.5 -9.5t9.5 -22.5v-66q0 -14 -9.5 -23.5t-22.5 -9.5h-179v-311h179q13 0 22.5 -9.5t9.5 -23.5v-65q0 -14 -9.5 -23.5t-22.5 -9.5h-244 q-27 0 -46.5 19.5t-19.5 46.5zM115 66q0 -11 10 -11h213q8 0 8 8v5q0 10 -8 10h-203v420h203q8 0 8 8v4q0 8 -8 8h-203v420h203q8 0 8 8v4q0 8 -8 8h-213q-10 0 -10 -10v-882z" />
<glyph unicode="F" horiz-adv-x="512" d="M59 33v915q0 28 19 47t47 19h244q13 0 22.5 -9.5t9.5 -23.5v-66q0 -13 -9.5 -22.5t-22.5 -9.5h-179v-310h179q13 0 22.5 -9.5t9.5 -22.5v-66q0 -14 -9.5 -23.5t-22.5 -9.5h-179v-409q0 -14 -9.5 -23.5t-22.5 -9.5h-66q-14 0 -23.5 10t-9.5 23zM115 63q0 -8 8 -8h4 q10 0 10 8v435h201q8 0 8 8v4q0 8 -8 8h-201v420h201q8 0 8 8v4q0 8 -8 8h-213q-10 0 -10 -10v-885z" />
<glyph unicode="G" horiz-adv-x="641" d="M59 233v543q0 98 69.5 167t166.5 69t166 -69t69 -167v-69q0 -14 -9.5 -23.5t-22.5 -9.5h-66q-14 0 -23.5 10t-9.5 23v69q0 44 -30.5 74.5t-73.5 30.5t-74 -30.5t-31 -74.5v-543q0 -43 31 -73.5t74 -30.5t73.5 30.5t30.5 73.5v211h-71q-13 0 -23 9.5t-10 21.5v66 q0 13 9.5 22.5t23.5 9.5h170q14 0 23 -9.5t9 -22.5v-308q0 -97 -69 -165t-166 -68t-166.5 68.5t-69.5 164.5zM115 233q0 -74 52.5 -127t127.5 -53t127.5 53t52.5 127v279q0 8 -8 8h-109q-8 0 -8 -8v-6q0 -8 8 -8h97v-265q0 -65 -47 -111t-113 -46t-113 46t-47 111v543 q0 66 47 113t113 47t113 -47t47 -113v-39q0 -8 8 -8h4q8 0 8 8v39q0 75 -52.5 128.5t-127.5 53.5t-127.5 -53.5t-52.5 -128.5v-543z" />
<glyph unicode="H" horiz-adv-x="641" d="M59 33v948q0 13 9.5 23t23.5 10h66q13 0 22.5 -9.5t9.5 -23.5v-408h209v408q0 13 10.5 23t22.5 10h66q13 0 22.5 -9.5t9.5 -23.5v-948q0 -14 -9.5 -23.5t-22.5 -9.5h-66q-12 0 -22.5 10t-10.5 23v409h-209v-409q0 -14 -9.5 -23.5t-22.5 -9.5h-66q-14 0 -23.5 10t-9.5 23z M113 63q0 -8 10 -8h4q8 0 8 8v433h320v-433q0 -8 8 -8h6q8 0 8 8v887q0 8 -8 8h-6q-8 0 -8 -8v-432h-320v432q0 8 -8 8h-4q-10 0 -10 -8v-887z" />
<glyph unicode="I" horiz-adv-x="301" d="M59 33v948q0 13 9.5 23t23.5 10h66q12 0 22 -10t10 -23v-948q0 -14 -9.5 -23.5t-22.5 -9.5h-66q-14 0 -23.5 10t-9.5 23zM113 63q0 -8 10 -8h4q8 0 8 8v887q0 8 -8 8h-4q-10 0 -10 -8v-887z" />
<glyph unicode="J" horiz-adv-x="641" d="M59 236v75q0 13 10.5 23t22.5 10h66q13 0 22.5 -9.5t9.5 -23.5v-75q0 -43 31 -74t74 -31q44 0 74 31t30 74v745q0 13 10.5 23t22.5 10h66q13 0 22.5 -9.5t9.5 -23.5v-745q0 -97 -68.5 -166.5t-166.5 -69.5q-97 0 -166.5 69.5t-69.5 166.5zM115 236q0 -75 53 -128t127 -53 q75 0 128.5 53t53.5 128v714q0 8 -10 8h-4q-8 0 -8 -8v-714q0 -66 -47 -113t-113 -47q-65 0 -111.5 47t-46.5 113v45q0 10 -10 10h-4q-8 0 -8 -10v-45z" />
<glyph unicode="K" d="M59 33v409v131v408q0 13 9.5 23t23.5 10h66q13 0 22.5 -9.5t9.5 -23.5v-408h105q44 0 75 31.5t31 75.5v301q0 13 9.5 23t23.5 10h66q13 0 22.5 -9.5t9.5 -23.5v-301q0 -102 -73 -172q73 -70 73 -170v-305q0 -12 -9.5 -22.5t-22.5 -10.5h-66q-13 0 -23 10.5t-10 22.5v305 q0 43 -31 73.5t-75 30.5h-105v-409q0 -12 -9.5 -22.5t-22.5 -10.5h-66q-13 0 -23 10.5t-10 22.5zM115 63q0 -8 8 -8h4q8 0 8 8v435h160q66 0 113 -47t47 -113v-275q0 -8 10 -8h4q8 0 8 8v275q0 58 -33 104.5t-86 65.5q54 21 86.5 67t32.5 105v270q0 8 -8 8h-4q-10 0 -10 -8 v-270q0 -66 -47 -113t-113 -47h-160v430q0 8 -8 8h-4q-8 0 -8 -8v-430v-22v-435z" />
<glyph unicode="L" horiz-adv-x="489" d="M59 66v915q0 13 9.5 23t23.5 10h66q12 0 22 -10t10 -23v-850h177q13 0 22.5 -9.5t9.5 -23.5v-65q0 -12 -9.5 -22.5t-22.5 -10.5h-242q-27 0 -46.5 19.5t-19.5 46.5zM113 66q0 -11 12 -11h211q10 0 10 8v7q0 8 -10 8h-201v872q0 8 -8 8h-6q-8 0 -8 -8v-884z" />
<glyph unicode="M" horiz-adv-x="985" d="M59 33v745q0 97 70 166.5t168 69.5q99 0 170 -74q71 74 170 74q98 0 167.5 -69.5t69.5 -166.5v-745q0 -12 -9.5 -22.5t-22.5 -10.5h-66q-13 0 -23 10.5t-10 22.5v745q0 43 -31 74t-75 31q-43 0 -74 -31t-31 -74v-745q0 -12 -9.5 -22.5t-22.5 -10.5h-66q-13 0 -23 10.5 t-10 22.5v745q0 43 -30.5 74t-73.5 31q-44 0 -75.5 -31t-31.5 -74v-745q0 -12 -9.5 -22.5t-22.5 -10.5h-66q-12 0 -22.5 10.5t-10.5 22.5zM115 63q0 -8 8 -8h4q10 0 10 8v715q0 66 47 113t113 47t113 -47t47 -113v-715q0 -8 8 -8h4q8 0 8 8v715q0 66 47 113t113 47t113 -47 t47 -113v-715q0 -8 10 -8h4q8 0 8 8v715q0 75 -53.5 127.5t-128.5 52.5q-58 0 -104.5 -32.5t-65.5 -85.5q-19 53 -65.5 85.5t-104.5 32.5q-75 0 -128.5 -52.5t-53.5 -127.5v-715z" />
<glyph unicode="N" d="M59 33v745q0 97 70 166.5t168 69.5q97 0 166 -69.5t69 -166.5v-745q0 -12 -9.5 -22.5t-22.5 -10.5h-66q-13 0 -23 10.5t-10 22.5v745q0 43 -30.5 74t-73.5 31q-44 0 -75.5 -31t-31.5 -74v-745q0 -12 -9.5 -22.5t-22.5 -10.5h-66q-13 0 -23 10.5t-10 22.5zM115 63 q0 -8 8 -8h4q10 0 10 8v715q0 66 47 113t113 47t113 -47t47 -113v-715q0 -8 8 -8h4q8 0 8 8v715q0 75 -52.5 127.5t-127.5 52.5t-128.5 -52.5t-53.5 -127.5v-715z" />
<glyph unicode="O" d="M59 238v540q0 97 70 166.5t168 69.5q97 0 166 -69.5t69 -166.5v-540q0 -98 -69 -168t-166 -70q-98 0 -168 70t-70 168zM115 238q0 -75 53.5 -129t128.5 -54t127.5 54t52.5 129v540q0 75 -52.5 127.5t-127.5 52.5t-128.5 -52.5t-53.5 -127.5v-540zM137 238v540 q0 66 47 113t113 47t113 -47t47 -113v-540q0 -66 -47 -113t-113 -47t-113 47t-47 113zM190 238q0 -44 31.5 -75.5t75.5 -31.5q43 0 73.5 31.5t30.5 75.5v540q0 43 -30.5 74t-73.5 31q-44 0 -75.5 -31t-31.5 -74v-540z" />
<glyph unicode="P" horiz-adv-x="600" d="M59 33v409v131v408q0 13 10.5 23t22.5 10h205q97 0 166 -69.5t69 -166.5v-98q0 -98 -69 -168t-166 -70h-107v-409q0 -12 -9.5 -22.5t-22.5 -10.5h-66q-12 0 -22.5 10.5t-10.5 22.5zM115 63q0 -8 8 -8h6q8 0 8 8v435h160q75 0 128.5 53.5t53.5 128.5v98q0 75 -53.5 127.5 t-128.5 52.5h-174q-8 0 -8 -8v-430v-22v-435zM137 520v418h160q66 0 113 -47t47 -113v-98q0 -66 -47 -113t-113 -47h-160zM190 573h107q43 0 73.5 31.5t30.5 75.5v98q0 43 -30.5 74t-73.5 31h-107v-310z" />
<glyph unicode="Q" d="M59 238v540q0 98 69 167t167 69q97 0 166 -69t69 -167v-540q0 -79 -48 -142.5t-122 -85.5v-106q0 -14 -9.5 -23.5t-22.5 -9.5h-66q-14 0 -23.5 9.5t-9.5 23.5v106q-74 22 -122 85.5t-48 142.5zM113 238q0 -72 49.5 -124t120.5 -57v-123q0 -8 10 -8h4q8 0 8 8v123 q72 5 122 57t50 124v540q0 75 -53.5 129t-128.5 54t-128.5 -54t-53.5 -129v-540zM135 238v540q0 66 47 113t113 47t113 -47t47 -113v-540q0 -66 -47 -113t-113 -47t-113 47t-47 113zM190 238q0 -43 31 -74t74 -31t73.5 31t30.5 74v540q0 43 -30.5 74t-73.5 31t-74 -31 t-31 -74v-540z" />
<glyph unicode="R" horiz-adv-x="630" d="M49 33v915q0 28 19 47t47 19h170q98 0 166.5 -69.5t68.5 -166.5v-98q0 -104 -71 -172q71 -68 71 -170v-305q0 -12 -10 -22.5t-23 -10.5h-65q-13 0 -23 10.5t-10 22.5v305q0 43 -30.5 73.5t-73.5 30.5h-105v-409q0 -12 -10.5 -22.5t-22.5 -10.5h-65q-13 0 -23 10.5 t-10 22.5zM102 63q0 -8 9 -8h6q8 0 8 8v435h160q66 0 112.5 -47t46.5 -113v-275q0 -8 9 -8h4q10 0 10 8v275q0 58 -34 104.5t-87 65.5q54 21 87.5 67t33.5 105v98q0 75 -53.5 127.5t-128.5 52.5h-170q-13 0 -13 -10v-885zM125 520v418h160q66 0 112.5 -47t46.5 -113v-98 q0 -66 -46.5 -113t-112.5 -47h-160zM180 573h105q43 0 73.5 31.5t30.5 75.5v98q0 43 -30.5 74t-73.5 31h-105v-310z" />
<glyph unicode="S" horiz-adv-x="600" d="M39 236v69q0 13 9.5 23t23.5 10h65q13 0 23 -10t10 -23v-69q0 -43 30.5 -74t73.5 -31t74 31t31 74q0 26 -6 34l-285 377q-37 50 -43 66t-6 65q0 97 69 166.5t166 69.5t166.5 -69.5t69.5 -166.5v-69q0 -13 -10 -23t-23 -10h-65q-14 0 -23.5 10t-9.5 23v69q0 43 -31 74 t-74 31t-73.5 -31t-30.5 -74q0 -27 6 -35l285 -376q37 -50 43 -66t6 -65q0 -97 -69.5 -166.5t-166.5 -69.5t-166 69.5t-69 166.5zM94 236q0 -75 52.5 -128t127.5 -53q76 0 127 54q54 51 54 127v2v24q0 24 -13 37l-319 428q-8 12 -8 25v24v2q0 66 46.5 113t112.5 47t113 -47 t47 -113v-39q0 -10 8 -10h4q9 0 9 10v39q0 75 -53 127.5t-128 52.5q-77 0 -127 -53q-53 -50 -53 -127v-2v2v-2v-24q0 -25 12 -37l320 -428q8 -12 8 -25v-24v-2v2v-2q0 -66 -47 -113t-113 -47t-112.5 47t-46.5 113v38q0 11 -9 11h-4q-8 0 -8 -11v-38z" />
<glyph unicode="T" horiz-adv-x="509" d="M39 915v66q0 13 9.5 23t23.5 10h315q13 0 23 -10t10 -23v-66q0 -13 -9.5 -22.5t-23.5 -9.5h-92v-850q0 -12 -10 -22.5t-23 -10.5h-65q-13 0 -23 10.5t-10 22.5v850h-92q-14 0 -23.5 9.5t-9.5 22.5zM94 946q0 -8 8 -8h117v-875q0 -8 8 -8h4q9 0 9 8v875h116q9 0 9 8v4 q0 8 -9 8h-254q-8 0 -8 -8v-4z" />
<glyph unicode="U" d="M59 238v743q0 13 10.5 23t22.5 10h66q13 0 22.5 -9.5t9.5 -23.5v-743q0 -44 31.5 -75.5t75.5 -31.5q43 0 73.5 31.5t30.5 75.5v743q0 13 9.5 23t23.5 10h66q13 0 22.5 -9.5t9.5 -23.5v-743q0 -98 -69 -168t-166 -70q-98 0 -168 70t-70 168zM115 238q0 -75 53.5 -129 t128.5 -54t128.5 54t53.5 129v712q0 8 -10 8h-4q-8 0 -8 -8v-712q0 -66 -47 -113t-113 -47t-113 47t-47 113v712q0 8 -8 8h-6q-8 0 -8 -8v-712z" />
<glyph unicode="V" d="M59 342v637q0 13 9.5 23t23.5 10h66q13 0 22.5 -9.5t9.5 -23.5v-637q0 -15 7 -33l98 -176l100 176q4 20 4 33v637q0 13 10.5 23t22.5 10h66q13 0 22.5 -9.5t9.5 -23.5v-637q0 -72 -38 -131l-111 -195q-10 -16 -29 -16h-114q-19 0 -29 16l-111 195q-39 61 -39 131z M113 344q0 -47 24 -88l111 -197q6 -6 10 -6h74q4 0 10 6l111 197q24 37 24 88v604q0 8 -10 8h-4q-8 0 -8 -8v-604q-1 -43 -21 -78l-108 -190h-62l-108 190q-9 16 -14 35.5t-6 30.5l-1 12v604q0 8 -8 8h-4q-10 0 -10 -8v-604z" />
<glyph unicode="W" horiz-adv-x="983" d="M59 344v635q0 13 9.5 23t23.5 10h66q13 0 22.5 -9.5t9.5 -23.5v-635q0 -14 7 -35l98 -174l100 174q6 18 6 35v635q0 13 9.5 23t23.5 10h66q12 0 22 -10t10 -23v-635q0 -5 5 -35l100 -174l98 174q6 18 6 35v635q0 13 9.5 23t23.5 10h66q13 0 22.5 -9.5t9.5 -23.5v-635 q0 -75 -38 -131l-111 -197q-12 -16 -29 -16h-114q-17 0 -29 16l-84 152l-86 -152q-12 -16 -29 -16h-114q-19 0 -27 16l-113 197q-39 58 -39 131zM115 346q0 -51 22 -90l113 -195q3 -6 8 -6h74q7 0 10 6l113 195q2 5 6 14.5t6 14.5q3 -13 12 -29l111 -195q3 -6 10 -6h74 q8 0 8 6l113 195q24 43 24 90v604q0 8 -10 8h-4q-8 0 -8 -8v-604q-1 -43 -21 -78l-108 -190h-62l-108 190q-9 16 -14 35.5t-6 30.5l-1 12v604q0 8 -8 8h-4q-10 0 -10 -8v-604q-1 -43 -21 -78l-108 -190h-62l-108 190q-9 16 -14 35.5t-6 30.5l-1 12v604q0 8 -8 8h-4 q-8 0 -8 -8v-604z" />
<glyph unicode="X" d="M59 33v127q0 75 41 131l119 213l-121 213q-39 58 -39 131v133q0 13 9.5 23t23.5 10h66q13 0 22.5 -9.5t9.5 -23.5v-133q0 -14 7 -35l98 -174l100 174q6 18 6 35v133q0 13 9.5 23t23.5 10h66q13 0 22.5 -9.5t9.5 -23.5v-133q0 -76 -40 -131l-119 -213l119 -213 q40 -55 40 -131v-127q0 -12 -9.5 -22.5t-22.5 -10.5h-66q-13 0 -23 10.5t-10 22.5v127q0 20 -6 35l-100 176l-98 -176q-7 -17 -7 -35v-127q0 -12 -9.5 -22.5t-22.5 -10.5h-66q-13 0 -23 10.5t-10 22.5zM115 66q0 -11 8 -11h4q8 0 8 11v94q0 23 10 53l2 4l148 264l149 -264 l2 -4q9 -27 9 -53v-94q0 -11 10 -11h4q8 0 8 11v94q0 54 -31 102l-137 242l137 241v3q31 45 31 100v102q0 8 -8 8h-4q-10 0 -10 -8v-102q0 -27 -9 -51l-2 -6l-149 -263l-148 263l-2 6q-10 27 -10 51v102q0 8 -8 8h-4q-8 0 -8 -8v-102q0 -56 30 -100v-3l138 -241l-138 -242 q-30 -46 -30 -102v-94z" />
<glyph unicode="Y" horiz-adv-x="602" d="M39 680v301q0 13 9.5 23t23.5 10h65q13 0 23 -10t10 -23v-301q0 -44 31 -75.5t75 -31.5q43 0 74 31.5t31 75.5v301q0 13 9.5 23t23.5 10h65q13 0 23 -10t10 -23v-301q0 -80 -47.5 -142.5t-122.5 -84.5v-420q0 -12 -10.5 -22.5t-22.5 -10.5h-65q-13 0 -23 10.5t-10 22.5 v420q-76 22 -124 84t-48 143zM94 680q0 -73 49.5 -125t120.5 -57v-435q0 -8 8 -8h7q8 0 8 8v435q71 5 120.5 57t49.5 125v270q0 8 -8 8h-5q-10 0 -10 -8v-270q0 -66 -46 -113t-112 -47t-112.5 47t-46.5 113v270q0 8 -11 8h-4q-8 0 -8 -8v-270z" />
<glyph unicode="Z" horiz-adv-x="620" d="M59 33v203q0 49 6 65t41 66l289 378q4 8 4 35v103h-307q-14 0 -23.5 9.5t-9.5 22.5v66q0 13 9.5 23t23.5 10h406q13 0 22.5 -9.5t9.5 -23.5v-66v-135q0 -51 -6 -67.5t-41 -63.5l-286 -381q-7 -7 -7 -32v-105h308q13 0 22.5 -9.5t9.5 -23.5v-65q0 -12 -9.5 -22.5 t-22.5 -10.5h-406q-13 0 -23 10.5t-10 22.5zM113 63q0 -8 10 -8h346q8 0 8 8v7q0 8 -8 8h-334v182q0 15 8 27l322 428q12 20 12 39v196q0 8 -10 8h-346q-8 0 -8 -8v-4q0 -8 8 -8h334v-184q0 -16 -9 -25l-319 -430q-14 -17 -14 -39v-197z" />
<glyph unicode="[" horiz-adv-x="509" d="M59 33v948q0 13 9.5 23t23.5 10h275q13 0 22.5 -9.5t9.5 -23.5v-66q0 -13 -9.5 -22.5t-22.5 -9.5h-177v-752h177q13 0 22.5 -9.5t9.5 -23.5v-65q0 -12 -9.5 -22.5t-22.5 -10.5h-275q-13 0 -23 10.5t-10 22.5zM113 66q0 -11 12 -11h213q8 0 8 8v7q0 8 -8 8h-203v864h203 q8 0 8 8v4q0 11 -8 11h-213q-4 0 -8 -4t-4 -9v-886z" />
<glyph unicode="\" d="M59 780v201q0 13 9.5 23t23.5 10h66q13 0 22.5 -9.5t9.5 -23.5v-201q0 -26 7 -35l286 -378q37 -50 43 -66t6 -65v-203q0 -12 -10 -22.5t-22 -10.5h-66q-13 0 -23 10.5t-10 22.5v203q0 26 -6 32l-286 381q-37 48 -43.5 64.5t-6.5 66.5zM115 754q0 -24 12 -39l319 -428 q9 -14 9 -25v-199q0 -8 10 -8h4q8 0 8 8v199q0 17 -12 37l-322 430q-8 12 -8 25v196q0 8 -8 8h-4q-8 0 -8 -8v-196z" />
<glyph unicode="]" horiz-adv-x="509" d="M59 33v65q0 14 9.5 23.5t23.5 9.5h178v752h-178q-14 0 -23.5 9.5t-9.5 22.5v66q0 13 9.5 23t23.5 10h277q12 0 22 -10t10 -23v-948q0 -12 -10 -22.5t-22 -10.5h-277q-13 0 -23 10.5t-10 22.5zM113 63q0 -8 10 -8h213q10 0 10 11v886q0 13 -10 13h-213q-10 0 -10 -11v-4 q0 -8 10 -8h201v-864h-201q-10 0 -10 -8v-7z" />
<glyph unicode="^" horiz-adv-x="612" d="M63 1162q-6 11 3 26l118 209q8 14 24.5 25t33.5 12q2 2 39 2t38 -2q17 -1 33.5 -12t24.5 -25l119 -209q9 -15 2.5 -26t-25.5 -11h-63q-19 0 -38 11t-28 26l-63 115l-64 -115q-9 -15 -28.5 -26t-36.5 -11h-64q-19 0 -25 11zM141 1214q-3 -8 4 -8h9q9 0 14 8l82 146h61 l82 -146q3 -8 15 -8h8q7 0 4 8l-90 160q-8 8 -15 8h-69q-11 0 -15 -8z" />
<glyph unicode="`" horiz-adv-x="452" d="M65 1425q6 11 25 11h64q18 0 37 -11t28 -26l119 -211q9 -15 2.5 -26t-25.5 -11h-63q-19 0 -38 11t-28 26l-118 211q-9 15 -3 26zM143 1374l93 -162q3 -6 12 -6h8q9 0 6 6l-92 162q-4 8 -12 8h-11q-8 0 -4 -8z" />
<glyph unicode="a" d="M59 33v743q0 97 70 166.5t168 69.5q97 0 166 -69.5t69 -166.5v-743q0 -14 -9.5 -23.5t-22.5 -9.5h-66q-14 0 -23.5 10t-9.5 23v407h-211v-407q0 -14 -9.5 -23.5t-22.5 -9.5h-66q-14 0 -23.5 10t-9.5 23zM115 61q0 -8 8 -8h4q10 0 10 8v435h320v-435q0 -8 8 -8h4q8 0 8 8 v715q0 75 -52.5 128.5t-127.5 53.5t-128.5 -53.5t-53.5 -128.5v-715zM137 518v258q0 66 47 113t113 47t113 -47t47 -113v-258h-320zM190 571h211v205q0 43 -30.5 74t-73.5 31q-44 0 -75.5 -31t-31.5 -74v-205z" />
<glyph unicode="b" d="M59 66v882q0 28 19 47t47 19h172q97 0 166 -70t69 -168v-98q0 -103 -73 -170q73 -67 73 -172v-98q0 -98 -69 -168t-166 -70h-172q-27 0 -46.5 19.5t-19.5 46.5zM115 66q0 -11 10 -11h172q75 0 128.5 54t53.5 129v98q0 59 -33.5 105t-87.5 67q53 19 87 65.5t34 104.5v98 q0 75 -53.5 128.5t-128.5 53.5h-172q-10 0 -10 -10v-882zM137 78v418h160q66 0 113 -47t47 -113v-98q0 -66 -47 -113t-113 -47h-160zM137 518v420h160q66 0 113 -47.5t47 -114.5v-98q0 -66 -47 -113t-113 -47h-160zM190 133h107q43 0 73.5 31t30.5 74v98q0 44 -30.5 75 t-73.5 31h-107v-309zM190 573h107q43 0 73.5 31t30.5 74v98q0 44 -30.5 75.5t-73.5 31.5h-107v-310z" />
<glyph unicode="c" horiz-adv-x="620" d="M59 236v542q0 97 69 166.5t167 69.5q97 0 166 -69.5t69 -166.5v-69q0 -14 -9.5 -23.5t-22.5 -9.5h-66q-14 0 -23.5 10t-9.5 23v69q0 43 -30.5 74t-73.5 31t-74 -31t-31 -74v-542q0 -43 31 -74t74 -31t73.5 31t30.5 74v75q0 13 9.5 23t23.5 10h66q13 0 22.5 -9.5 t9.5 -23.5v-75q0 -97 -69 -166.5t-166 -69.5q-98 0 -167 69.5t-69 166.5zM113 236q0 -75 53.5 -128t128.5 -53t127.5 53t52.5 128v45q0 10 -8 10h-4q-10 0 -10 -10v-45q0 -66 -46 -113t-112 -47t-113 47t-47 113v542q0 66 47 112t113 46t112 -46t46 -112v-16v-23 q0 -10 10 -10h4q8 0 8 10v23v16q0 75 -52.5 127.5t-127.5 52.5t-128.5 -52.5t-53.5 -127.5v-542z" />
<glyph unicode="d" d="M59 66v882q0 27 19.5 46.5t46.5 19.5h172q98 0 166.5 -69.5t68.5 -168.5v-538q0 -99 -68.5 -168.5t-166.5 -69.5h-172q-26 0 -46 20t-20 46zM115 66q0 -11 10 -11h172q75 0 128.5 54t53.5 129v538q0 75 -53.5 128.5t-128.5 53.5h-172q-10 0 -10 -10v-882zM137 78v860h160 q66 0 113 -47.5t47 -114.5v-538q0 -66 -47 -113t-113 -47h-160zM190 133h107q43 0 73.5 31t30.5 74v538q0 44 -30.5 75.5t-73.5 31.5h-107v-750z" />
<glyph unicode="e" horiz-adv-x="512" d="M59 66v882q0 28 19 47t47 19h244q13 0 22.5 -9.5t9.5 -23.5v-66q0 -13 -9.5 -22.5t-22.5 -9.5h-179v-310h179q13 0 22.5 -9.5t9.5 -22.5v-66q0 -14 -9.5 -23.5t-22.5 -9.5h-179v-311h179q13 0 22.5 -9.5t9.5 -23.5v-65q0 -14 -9.5 -23.5t-22.5 -9.5h-244 q-27 0 -46.5 19.5t-19.5 46.5zM115 66q0 -11 10 -11h213q8 0 8 8v5q0 10 -8 10h-203v420h203q8 0 8 8v4q0 8 -8 8h-203v420h203q8 0 8 8v4q0 8 -8 8h-213q-10 0 -10 -10v-882z" />
<glyph unicode="f" horiz-adv-x="512" d="M59 33v915q0 28 19 47t47 19h244q13 0 22.5 -9.5t9.5 -23.5v-66q0 -13 -9.5 -22.5t-22.5 -9.5h-179v-310h179q13 0 22.5 -9.5t9.5 -22.5v-66q0 -14 -9.5 -23.5t-22.5 -9.5h-179v-409q0 -14 -9.5 -23.5t-22.5 -9.5h-66q-14 0 -23.5 10t-9.5 23zM115 63q0 -8 8 -8h4 q10 0 10 8v435h201q8 0 8 8v4q0 8 -8 8h-201v420h201q8 0 8 8v4q0 8 -8 8h-213q-10 0 -10 -10v-885z" />
<glyph unicode="g" horiz-adv-x="641" d="M59 233v543q0 98 69.5 167t166.5 69t166 -69t69 -167v-69q0 -14 -9.5 -23.5t-22.5 -9.5h-66q-14 0 -23.5 10t-9.5 23v69q0 44 -30.5 74.5t-73.5 30.5t-74 -30.5t-31 -74.5v-543q0 -43 31 -73.5t74 -30.5t73.5 30.5t30.5 73.5v211h-71q-13 0 -23 9.5t-10 21.5v66 q0 13 9.5 22.5t23.5 9.5h170q14 0 23 -9.5t9 -22.5v-308q0 -97 -69 -165t-166 -68t-166.5 68.5t-69.5 164.5zM115 233q0 -74 52.5 -127t127.5 -53t127.5 53t52.5 127v279q0 8 -8 8h-109q-8 0 -8 -8v-6q0 -8 8 -8h97v-265q0 -65 -47 -111t-113 -46t-113 46t-47 111v543 q0 66 47 113t113 47t113 -47t47 -113v-39q0 -8 8 -8h4q8 0 8 8v39q0 75 -52.5 128.5t-127.5 53.5t-127.5 -53.5t-52.5 -128.5v-543z" />
<glyph unicode="h" horiz-adv-x="641" d="M59 33v948q0 13 9.5 23t23.5 10h66q13 0 22.5 -9.5t9.5 -23.5v-408h209v408q0 13 10.5 23t22.5 10h66q13 0 22.5 -9.5t9.5 -23.5v-948q0 -14 -9.5 -23.5t-22.5 -9.5h-66q-12 0 -22.5 10t-10.5 23v409h-209v-409q0 -14 -9.5 -23.5t-22.5 -9.5h-66q-14 0 -23.5 10t-9.5 23z M113 63q0 -8 10 -8h4q8 0 8 8v433h320v-433q0 -8 8 -8h6q8 0 8 8v887q0 8 -8 8h-6q-8 0 -8 -8v-432h-320v432q0 8 -8 8h-4q-10 0 -10 -8v-887z" />
<glyph unicode="i" horiz-adv-x="301" d="M59 33v948q0 13 9.5 23t23.5 10h66q12 0 22 -10t10 -23v-948q0 -14 -9.5 -23.5t-22.5 -9.5h-66q-14 0 -23.5 10t-9.5 23zM113 63q0 -8 10 -8h4q8 0 8 8v887q0 8 -8 8h-4q-10 0 -10 -8v-887z" />
<glyph unicode="j" horiz-adv-x="641" d="M59 236v75q0 13 10.5 23t22.5 10h66q13 0 22.5 -9.5t9.5 -23.5v-75q0 -43 31 -74t74 -31q44 0 74 31t30 74v745q0 13 10.5 23t22.5 10h66q13 0 22.5 -9.5t9.5 -23.5v-745q0 -97 -68.5 -166.5t-166.5 -69.5q-97 0 -166.5 69.5t-69.5 166.5zM115 236q0 -75 53 -128t127 -53 q75 0 128.5 53t53.5 128v714q0 8 -10 8h-4q-8 0 -8 -8v-714q0 -66 -47 -113t-113 -47q-65 0 -111.5 47t-46.5 113v45q0 10 -10 10h-4q-8 0 -8 -10v-45z" />
<glyph unicode="k" d="M59 33v409v131v408q0 13 9.5 23t23.5 10h66q13 0 22.5 -9.5t9.5 -23.5v-408h105q44 0 75 31.5t31 75.5v301q0 13 9.5 23t23.5 10h66q13 0 22.5 -9.5t9.5 -23.5v-301q0 -102 -73 -172q73 -70 73 -170v-305q0 -12 -9.5 -22.5t-22.5 -10.5h-66q-13 0 -23 10.5t-10 22.5v305 q0 43 -31 73.5t-75 30.5h-105v-409q0 -12 -9.5 -22.5t-22.5 -10.5h-66q-13 0 -23 10.5t-10 22.5zM115 63q0 -8 8 -8h4q8 0 8 8v435h160q66 0 113 -47t47 -113v-275q0 -8 10 -8h4q8 0 8 8v275q0 58 -33 104.5t-86 65.5q54 21 86.5 67t32.5 105v270q0 8 -8 8h-4q-10 0 -10 -8 v-270q0 -66 -47 -113t-113 -47h-160v430q0 8 -8 8h-4q-8 0 -8 -8v-430v-22v-435z" />
<glyph unicode="l" horiz-adv-x="489" d="M59 66v915q0 13 9.5 23t23.5 10h66q12 0 22 -10t10 -23v-850h177q13 0 22.5 -9.5t9.5 -23.5v-65q0 -12 -9.5 -22.5t-22.5 -10.5h-242q-27 0 -46.5 19.5t-19.5 46.5zM113 66q0 -11 12 -11h211q10 0 10 8v7q0 8 -10 8h-201v872q0 8 -8 8h-6q-8 0 -8 -8v-884z" />
<glyph unicode="m" horiz-adv-x="985" d="M59 33v745q0 97 70 166.5t168 69.5q99 0 170 -74q71 74 170 74q98 0 167.5 -69.5t69.5 -166.5v-745q0 -12 -9.5 -22.5t-22.5 -10.5h-66q-13 0 -23 10.5t-10 22.5v745q0 43 -31 74t-75 31q-43 0 -74 -31t-31 -74v-745q0 -12 -9.5 -22.5t-22.5 -10.5h-66q-13 0 -23 10.5 t-10 22.5v745q0 43 -30.5 74t-73.5 31q-44 0 -75.5 -31t-31.5 -74v-745q0 -12 -9.5 -22.5t-22.5 -10.5h-66q-12 0 -22.5 10.5t-10.5 22.5zM115 63q0 -8 8 -8h4q10 0 10 8v715q0 66 47 113t113 47t113 -47t47 -113v-715q0 -8 8 -8h4q8 0 8 8v715q0 66 47 113t113 47t113 -47 t47 -113v-715q0 -8 10 -8h4q8 0 8 8v715q0 75 -53.5 127.5t-128.5 52.5q-58 0 -104.5 -32.5t-65.5 -85.5q-19 53 -65.5 85.5t-104.5 32.5q-75 0 -128.5 -52.5t-53.5 -127.5v-715z" />
<glyph unicode="n" d="M59 33v745q0 97 70 166.5t168 69.5q97 0 166 -69.5t69 -166.5v-745q0 -12 -9.5 -22.5t-22.5 -10.5h-66q-13 0 -23 10.5t-10 22.5v745q0 43 -30.5 74t-73.5 31q-44 0 -75.5 -31t-31.5 -74v-745q0 -12 -9.5 -22.5t-22.5 -10.5h-66q-13 0 -23 10.5t-10 22.5zM115 63 q0 -8 8 -8h4q10 0 10 8v715q0 66 47 113t113 47t113 -47t47 -113v-715q0 -8 8 -8h4q8 0 8 8v715q0 75 -52.5 127.5t-127.5 52.5t-128.5 -52.5t-53.5 -127.5v-715z" />
<glyph unicode="o" d="M59 238v540q0 97 70 166.5t168 69.5q97 0 166 -69.5t69 -166.5v-540q0 -98 -69 -168t-166 -70q-98 0 -168 70t-70 168zM115 238q0 -75 53.5 -129t128.5 -54t127.5 54t52.5 129v540q0 75 -52.5 127.5t-127.5 52.5t-128.5 -52.5t-53.5 -127.5v-540zM137 238v540 q0 66 47 113t113 47t113 -47t47 -113v-540q0 -66 -47 -113t-113 -47t-113 47t-47 113zM190 238q0 -44 31.5 -75.5t75.5 -31.5q43 0 73.5 31.5t30.5 75.5v540q0 43 -30.5 74t-73.5 31q-44 0 -75.5 -31t-31.5 -74v-540z" />
<glyph unicode="p" horiz-adv-x="600" d="M59 33v409v131v408q0 13 10.5 23t22.5 10h205q97 0 166 -69.5t69 -166.5v-98q0 -98 -69 -168t-166 -70h-107v-409q0 -12 -9.5 -22.5t-22.5 -10.5h-66q-12 0 -22.5 10.5t-10.5 22.5zM115 63q0 -8 8 -8h6q8 0 8 8v435h160q75 0 128.5 53.5t53.5 128.5v98q0 75 -53.5 127.5 t-128.5 52.5h-174q-8 0 -8 -8v-430v-22v-435zM137 520v418h160q66 0 113 -47t47 -113v-98q0 -66 -47 -113t-113 -47h-160zM190 573h107q43 0 73.5 31.5t30.5 75.5v98q0 43 -30.5 74t-73.5 31h-107v-310z" />
<glyph unicode="q" d="M59 238v540q0 98 69 167t167 69q97 0 166 -69t69 -167v-540q0 -79 -48 -142.5t-122 -85.5v-106q0 -14 -9.5 -23.5t-22.5 -9.5h-66q-14 0 -23.5 9.5t-9.5 23.5v106q-74 22 -122 85.5t-48 142.5zM113 238q0 -72 49.5 -124t120.5 -57v-123q0 -8 10 -8h4q8 0 8 8v123 q72 5 122 57t50 124v540q0 75 -53.5 129t-128.5 54t-128.5 -54t-53.5 -129v-540zM135 238v540q0 66 47 113t113 47t113 -47t47 -113v-540q0 -66 -47 -113t-113 -47t-113 47t-47 113zM190 238q0 -43 31 -74t74 -31t73.5 31t30.5 74v540q0 43 -30.5 74t-73.5 31t-74 -31 t-31 -74v-540z" />
<glyph unicode="r" horiz-adv-x="630" d="M49 33v915q0 28 19 47t47 19h170q98 0 166.5 -69.5t68.5 -166.5v-98q0 -104 -71 -172q71 -68 71 -170v-305q0 -12 -10 -22.5t-23 -10.5h-65q-13 0 -23 10.5t-10 22.5v305q0 43 -30.5 73.5t-73.5 30.5h-105v-409q0 -12 -10.5 -22.5t-22.5 -10.5h-65q-13 0 -23 10.5 t-10 22.5zM102 63q0 -8 9 -8h6q8 0 8 8v435h160q66 0 112.5 -47t46.5 -113v-275q0 -8 9 -8h4q10 0 10 8v275q0 58 -34 104.5t-87 65.5q54 21 87.5 67t33.5 105v98q0 75 -53.5 127.5t-128.5 52.5h-170q-13 0 -13 -10v-885zM125 520v418h160q66 0 112.5 -47t46.5 -113v-98 q0 -66 -46.5 -113t-112.5 -47h-160zM180 573h105q43 0 73.5 31.5t30.5 75.5v98q0 43 -30.5 74t-73.5 31h-105v-310z" />
<glyph unicode="s" horiz-adv-x="600" d="M39 236v69q0 13 9.5 23t23.5 10h65q13 0 23 -10t10 -23v-69q0 -43 30.5 -74t73.5 -31t74 31t31 74q0 26 -6 34l-285 377q-37 50 -43 66t-6 65q0 97 69 166.5t166 69.5t166.5 -69.5t69.5 -166.5v-69q0 -13 -10 -23t-23 -10h-65q-14 0 -23.5 10t-9.5 23v69q0 43 -31 74 t-74 31t-73.5 -31t-30.5 -74q0 -27 6 -35l285 -376q37 -50 43 -66t6 -65q0 -97 -69.5 -166.5t-166.5 -69.5t-166 69.5t-69 166.5zM94 236q0 -75 52.5 -128t127.5 -53q76 0 127 54q54 51 54 127v2v24q0 24 -13 37l-319 428q-8 12 -8 25v24v2q0 66 46.5 113t112.5 47t113 -47 t47 -113v-39q0 -10 8 -10h4q9 0 9 10v39q0 75 -53 127.5t-128 52.5q-77 0 -127 -53q-53 -50 -53 -127v-2v2v-2v-24q0 -25 12 -37l320 -428q8 -12 8 -25v-24v-2v2v-2q0 -66 -47 -113t-113 -47t-112.5 47t-46.5 113v38q0 11 -9 11h-4q-8 0 -8 -11v-38z" />
<glyph unicode="t" horiz-adv-x="509" d="M39 915v66q0 13 9.5 23t23.5 10h315q13 0 23 -10t10 -23v-66q0 -13 -9.5 -22.5t-23.5 -9.5h-92v-850q0 -12 -10 -22.5t-23 -10.5h-65q-13 0 -23 10.5t-10 22.5v850h-92q-14 0 -23.5 9.5t-9.5 22.5zM94 946q0 -8 8 -8h117v-875q0 -8 8 -8h4q9 0 9 8v875h116q9 0 9 8v4 q0 8 -9 8h-254q-8 0 -8 -8v-4z" />
<glyph unicode="u" d="M59 238v743q0 13 10.5 23t22.5 10h66q13 0 22.5 -9.5t9.5 -23.5v-743q0 -44 31.5 -75.5t75.5 -31.5q43 0 73.5 31.5t30.5 75.5v743q0 13 9.5 23t23.5 10h66q13 0 22.5 -9.5t9.5 -23.5v-743q0 -98 -69 -168t-166 -70q-98 0 -168 70t-70 168zM115 238q0 -75 53.5 -129 t128.5 -54t128.5 54t53.5 129v712q0 8 -10 8h-4q-8 0 -8 -8v-712q0 -66 -47 -113t-113 -47t-113 47t-47 113v712q0 8 -8 8h-6q-8 0 -8 -8v-712z" />
<glyph unicode="v" d="M59 342v637q0 13 9.5 23t23.5 10h66q13 0 22.5 -9.5t9.5 -23.5v-637q0 -15 7 -33l98 -176l100 176q4 20 4 33v637q0 13 10.5 23t22.5 10h66q13 0 22.5 -9.5t9.5 -23.5v-637q0 -72 -38 -131l-111 -195q-10 -16 -29 -16h-114q-19 0 -29 16l-111 195q-39 61 -39 131z M113 344q0 -47 24 -88l111 -197q6 -6 10 -6h74q4 0 10 6l111 197q24 37 24 88v604q0 8 -10 8h-4q-8 0 -8 -8v-604q-1 -43 -21 -78l-108 -190h-62l-108 190q-9 16 -14 35.5t-6 30.5l-1 12v604q0 8 -8 8h-4q-10 0 -10 -8v-604z" />
<glyph unicode="w" horiz-adv-x="983" d="M59 344v635q0 13 9.5 23t23.5 10h66q13 0 22.5 -9.5t9.5 -23.5v-635q0 -14 7 -35l98 -174l100 174q6 18 6 35v635q0 13 9.5 23t23.5 10h66q12 0 22 -10t10 -23v-635q0 -5 5 -35l100 -174l98 174q6 18 6 35v635q0 13 9.5 23t23.5 10h66q13 0 22.5 -9.5t9.5 -23.5v-635 q0 -75 -38 -131l-111 -197q-12 -16 -29 -16h-114q-17 0 -29 16l-84 152l-86 -152q-12 -16 -29 -16h-114q-19 0 -27 16l-113 197q-39 58 -39 131zM115 346q0 -51 22 -90l113 -195q3 -6 8 -6h74q7 0 10 6l113 195q2 5 6 14.5t6 14.5q3 -13 12 -29l111 -195q3 -6 10 -6h74 q8 0 8 6l113 195q24 43 24 90v604q0 8 -10 8h-4q-8 0 -8 -8v-604q-1 -43 -21 -78l-108 -190h-62l-108 190q-9 16 -14 35.5t-6 30.5l-1 12v604q0 8 -8 8h-4q-10 0 -10 -8v-604q-1 -43 -21 -78l-108 -190h-62l-108 190q-9 16 -14 35.5t-6 30.5l-1 12v604q0 8 -8 8h-4 q-8 0 -8 -8v-604z" />
<glyph unicode="x" d="M59 33v127q0 75 41 131l119 213l-121 213q-39 58 -39 131v133q0 13 9.5 23t23.5 10h66q13 0 22.5 -9.5t9.5 -23.5v-133q0 -14 7 -35l98 -174l100 174q6 18 6 35v133q0 13 9.5 23t23.5 10h66q13 0 22.5 -9.5t9.5 -23.5v-133q0 -76 -40 -131l-119 -213l119 -213 q40 -55 40 -131v-127q0 -12 -9.5 -22.5t-22.5 -10.5h-66q-13 0 -23 10.5t-10 22.5v127q0 20 -6 35l-100 176l-98 -176q-7 -17 -7 -35v-127q0 -12 -9.5 -22.5t-22.5 -10.5h-66q-13 0 -23 10.5t-10 22.5zM115 66q0 -11 8 -11h4q8 0 8 11v94q0 23 10 53l2 4l148 264l149 -264 l2 -4q9 -27 9 -53v-94q0 -11 10 -11h4q8 0 8 11v94q0 54 -31 102l-137 242l137 241v3q31 45 31 100v102q0 8 -8 8h-4q-10 0 -10 -8v-102q0 -27 -9 -51l-2 -6l-149 -263l-148 263l-2 6q-10 27 -10 51v102q0 8 -8 8h-4q-8 0 -8 -8v-102q0 -56 30 -100v-3l138 -241l-138 -242 q-30 -46 -30 -102v-94z" />
<glyph unicode="y" horiz-adv-x="602" d="M39 680v301q0 13 9.5 23t23.5 10h65q13 0 23 -10t10 -23v-301q0 -44 31 -75.5t75 -31.5q43 0 74 31.5t31 75.5v301q0 13 9.5 23t23.5 10h65q13 0 23 -10t10 -23v-301q0 -80 -47.5 -142.5t-122.5 -84.5v-420q0 -12 -10.5 -22.5t-22.5 -10.5h-65q-13 0 -23 10.5t-10 22.5 v420q-76 22 -124 84t-48 143zM94 680q0 -73 49.5 -125t120.5 -57v-435q0 -8 8 -8h7q8 0 8 8v435q71 5 120.5 57t49.5 125v270q0 8 -8 8h-5q-10 0 -10 -8v-270q0 -66 -46 -113t-112 -47t-112.5 47t-46.5 113v270q0 8 -11 8h-4q-8 0 -8 -8v-270z" />
<glyph unicode="z" horiz-adv-x="620" d="M59 33v203q0 49 6 65t41 66l289 378q4 8 4 35v103h-307q-14 0 -23.5 9.5t-9.5 22.5v66q0 13 9.5 23t23.5 10h406q13 0 22.5 -9.5t9.5 -23.5v-66v-135q0 -51 -6 -67.5t-41 -63.5l-286 -381q-7 -7 -7 -32v-105h308q13 0 22.5 -9.5t9.5 -23.5v-65q0 -12 -9.5 -22.5 t-22.5 -10.5h-406q-13 0 -23 10.5t-10 22.5zM113 63q0 -8 10 -8h346q8 0 8 8v7q0 8 -8 8h-334v182q0 15 8 27l322 428q12 20 12 39v196q0 8 -10 8h-346q-8 0 -8 -8v-4q0 -8 8 -8h334v-184q0 -16 -9 -25l-319 -430q-14 -17 -14 -39v-197z" />
<glyph unicode="&#xa1;" horiz-adv-x="301" d="M59 -90v747q0 13 9.5 23t23.5 10h66q13 0 22.5 -9.5t9.5 -23.5v-747q0 -14 -9.5 -23.5t-22.5 -9.5h-66q-14 0 -23.5 9.5t-9.5 23.5zM59 852v135q0 13 9.5 23t23.5 10h66q13 0 22.5 -9.5t9.5 -23.5v-135q0 -14 -9.5 -23.5t-22.5 -9.5h-66q-14 0 -23.5 9.5t-9.5 23.5z M115 -55q0 -11 8 -11h4q8 0 8 11v682q0 8 -8 8h-4q-8 0 -8 -8v-682zM115 883q0 -11 8 -11h4q8 0 8 11v73q0 9 -8 9h-4q-8 0 -8 -9v-73z" />
<glyph unicode="&#xa8;" horiz-adv-x="509" d="M59 1182v135q0 12 10 22.5t23 10.5h66q13 0 22.5 -10.5t9.5 -22.5v-135q0 -14 -9.5 -23.5t-22.5 -9.5h-66q-14 0 -23.5 9.5t-9.5 23.5zM115 1210q0 -8 8 -8h4q8 0 8 8v76q0 8 -8 8h-4q-8 0 -8 -8v-76zM270 1182v135q0 12 10 22.5t23 10.5h64q13 0 22.5 -10.5t9.5 -22.5 v-135q0 -14 -9.5 -23.5t-22.5 -9.5h-64q-13 0 -23 9.5t-10 23.5zM324 1210q0 -8 8 -8h6q8 0 8 8v76q0 8 -8 8h-6q-8 0 -8 -8v-76z" />
<glyph unicode="&#xad;" horiz-adv-x="571" d="M59 471v66q0 12 10 22t23 10h336q13 0 23 -10t10 -22v-66q0 -13 -9.5 -23t-23.5 -10h-336q-14 0 -23.5 10t-9.5 23zM115 500q0 -8 8 -8h276q9 0 9 8v6q0 8 -9 8h-276q-8 0 -8 -8v-6z" />
<glyph unicode="&#xaf;" horiz-adv-x="1705" />
<glyph unicode="&#xb4;" horiz-adv-x="450" d="M63 1162q-6 11 3 26l118 209q7 15 26.5 26t37.5 11h63q19 0 25.5 -11t-2.5 -26l-119 -209q-7 -15 -26.5 -26t-36.5 -11h-64q-19 0 -25 11zM141 1212q-4 -8 4 -8h9q6 0 14 8l90 160q4 8 -4 8h-8q-11 0 -15 -8z" />
<glyph unicode="&#xb7;" horiz-adv-x="1705" />
<glyph unicode="&#xb8;" horiz-adv-x="1705" />
<glyph unicode="&#xbf;" horiz-adv-x="641" d="M59 111q0 49 6.5 65t43.5 66l286 379q6 8 6 34q0 13 9.5 23t23.5 10h66q13 0 22.5 -9.5t9.5 -23.5q0 -51 -6 -67.5t-43 -63.5l-286 -379q-7 -9 -7 -34q0 -43 31 -74t74 -31q44 0 75 31t31 74v69q0 14 9.5 23.5t23.5 9.5h66q13 0 22.5 -9.5t9.5 -23.5v-69 q0 -98 -69.5 -167t-167.5 -69q-97 0 -166.5 69t-69.5 167zM115 115q0 -76 53 -129q54 -54 127 -54q75 0 128.5 54t53.5 129v39q0 10 -8 10h-4q-10 0 -10 -10v-39q0 -66 -47 -113t-113 -47t-112 47t-48 113v14v12q0 13 8 25l322 430q8 8 12 27q0 10 -6 10h-6q-10 0 -10 -8 q-4 -12 -9 -17l-319 -430q-12 -12 -12 -37v-12v-14zM115 115v2v-2zM401 850v135q0 13 9.5 23t23.5 10h66q13 0 22.5 -9.5t9.5 -23.5v-135q0 -14 -9.5 -23.5t-22.5 -9.5h-66q-14 0 -23.5 9.5t-9.5 23.5zM455 881q0 -11 10 -11h4q8 0 8 11v73q0 9 -8 9h-4q-10 0 -10 -9v-73z " />
<glyph unicode="&#xc0;" d="M59 33v743q0 98 69.5 167t166.5 69q98 0 167.5 -69t69.5 -167v-743q0 -14 -9.5 -23.5t-22.5 -9.5h-66q-14 0 -23.5 10t-9.5 23v409h-211v-409q0 -14 -9.5 -23.5t-22.5 -9.5h-66q-14 0 -23.5 10t-9.5 23zM79 1425q6 11 25 11h64q18 0 37 -11t28 -26l119 -211q9 -15 3 -26 t-25 -11h-64q-18 0 -37 11t-28 26l-119 211q-9 15 -3 26zM115 63q0 -10 8 -10h4q8 0 8 10v433h320v-433q0 -10 10 -10h4q8 0 8 10v713q0 75 -53.5 128.5t-128.5 53.5t-127.5 -53.5t-52.5 -128.5v-713zM135 518v258q0 66 47 113t113 47t113 -47t47 -113v-258h-320zM158 1374 l92 -162q3 -6 12 -6h8q9 0 6 6l-92 162q-4 8 -12 8h-10q-8 0 -4 -8zM190 573h211v203q0 43 -31 74t-75 31q-43 0 -74 -31t-31 -74v-203z" />
<glyph unicode="&#xc1;" d="M59 33v743q0 98 70 167t168 69q97 0 166 -69t69 -167v-743q0 -14 -9.5 -23.5t-22.5 -9.5h-66q-14 0 -23.5 10t-9.5 23v409h-211v-409q0 -14 -9.5 -23.5t-22.5 -9.5h-66q-14 0 -23.5 10t-9.5 23zM115 63q0 -10 8 -10h4q10 0 10 10v433h320v-433q0 -10 8 -10h4q8 0 8 10 v713q0 75 -53 128.5t-127 53.5q-75 0 -128.5 -53.5t-53.5 -128.5v-713zM137 518v258q0 66 47 113t113 47t113 -47t47 -113v-258h-320zM190 573h211v203q0 43 -30.5 74t-73.5 31q-44 0 -75.5 -31t-31.5 -74v-203zM228.5 1162q-6.5 11 2.5 26l119 209q7 15 26.5 26t37.5 11h63 q19 0 25.5 -11t-2.5 -26l-119 -209q-7 -15 -26.5 -26t-37.5 -11h-63q-19 0 -25.5 11zM307 1212q-4 -8 4 -8h8q7 0 15 8l90 160q4 8 -4 8h-8q-11 0 -15 -8z" />
<glyph unicode="&#xc2;" d="M59 33v743q0 98 70 167t168 69q97 0 166 -69t69 -167v-743q0 -14 -9.5 -23.5t-22.5 -9.5h-66q-14 0 -23.5 10t-9.5 23v409h-211v-409q0 -14 -9.5 -23.5t-22.5 -9.5h-66q-14 0 -23.5 10t-9.5 23zM77 1162q-6 11 3 26l119 209q8 14 24 25t33 12q2 2 39 2t39 -2 q17 -1 33 -12t24 -25l119 -209q9 -15 2.5 -26t-25.5 -11h-63q-19 0 -38 11t-28 26l-63 115l-64 -115q-9 -15 -28.5 -26t-36.5 -11h-64q-19 0 -25 11zM115 63q0 -10 8 -10h4q10 0 10 10v433h320v-433q0 -10 8 -10h4q8 0 8 10v713q0 75 -53 128.5t-127 53.5 q-75 0 -128.5 -53.5t-53.5 -128.5v-713zM137 518v258q0 66 47 113t113 47t113 -47t47 -113v-258h-320zM156 1214q-3 -8 4 -8h8q9 0 14 8l82 146h62l82 -146q3 -8 14 -8h8q7 0 4 8l-90 160q-8 8 -14 8h-70q-10 0 -14 -8zM190 573h211v203q0 43 -30.5 74t-73.5 31 q-44 0 -75.5 -31t-31.5 -74v-203z" />
<glyph unicode="&#xc3;" horiz-adv-x="1705" />
<glyph unicode="&#xc4;" d="M59 33v743q0 98 70 167t168 69q97 0 166 -69t69 -167v-743q0 -14 -9.5 -23.5t-22.5 -9.5h-66q-14 0 -23.5 10t-9.5 23v409h-211v-409q0 -14 -9.5 -23.5t-22.5 -9.5h-66q-14 0 -23.5 10t-9.5 23zM115 63q0 -10 8 -10h4q10 0 10 10v433h320v-433q0 -10 8 -10h4q8 0 8 10 v713q0 75 -53 128.5t-127 53.5q-75 0 -128.5 -53.5t-53.5 -128.5v-713zM125 1182v135q0 12 10 22.5t23 10.5h65q13 0 23 -10.5t10 -22.5v-135q0 -14 -10 -23.5t-23 -9.5h-65q-14 0 -23.5 9.5t-9.5 23.5zM137 518v258q0 66 47 113t113 47t113 -47t47 -113v-258h-320z M180 1210q0 -8 8 -8h5q8 0 8 8v76q0 8 -8 8h-5q-8 0 -8 -8v-76zM190 573h211v203q0 43 -30.5 74t-73.5 31q-44 0 -75.5 -31t-31.5 -74v-203zM336 1182v135q0 12 10 22.5t23 10.5h63q13 0 23 -10.5t10 -22.5v-135q0 -14 -9.5 -23.5t-23.5 -9.5h-63q-13 0 -23 9.5t-10 23.5z M389 1210q0 -8 8 -8h6q9 0 9 8v76q0 8 -9 8h-6q-8 0 -8 -8v-76z" />
<glyph unicode="&#xc5;" horiz-adv-x="1705" />
<glyph unicode="&#xc6;" horiz-adv-x="1705" />
<glyph unicode="&#xc7;" horiz-adv-x="641" d="M59 236v544q0 98 69.5 167t166.5 69q98 0 167.5 -69t69.5 -167v-69q0 -13 -10 -23t-22 -10h-66q-14 0 -23.5 10t-9.5 23v69q0 43 -31 74t-75 31q-43 0 -74 -31t-31 -74v-544q0 -43 31 -74t74 -31q44 0 75 31t31 74v75q0 13 9.5 23t23.5 10h66q12 0 22 -10t10 -23v-75 q0 -79 -49 -142.5t-123 -85.5v-102q0 -14 -9.5 -23.5t-22.5 -9.5h-66q-14 0 -23.5 9.5t-9.5 23.5v102q-74 22 -122 85.5t-48 142.5zM115 236q0 -72 49 -125t121 -56v-118q0 -9 8 -9h4q10 0 10 9v118q70 3 120 56t50 125v47q0 8 -8 8h-6q-8 0 -8 -8v-47q0 -66 -47 -113 t-113 -47t-113 47t-47 113v544q0 66 47 113t113 47t113 -47t47 -113v-16h22v16q0 75 -53.5 129t-128.5 54t-127.5 -54t-52.5 -129v-544zM455 741q0 -10 8 -10h6q8 0 8 10v23h-22v-23z" />
<glyph unicode="&#xc8;" horiz-adv-x="512" d="M13.5 1425q6.5 11 25.5 11h63q19 0 38 -11t28 -26l119 -211q9 -15 2.5 -26t-25.5 -11h-63q-19 0 -38 11t-28 26l-119 211q-9 15 -2.5 26zM59 66v882q0 28 19 47t47 19h244q13 0 22.5 -9.5t9.5 -23.5v-66q0 -13 -9.5 -22.5t-22.5 -9.5h-179v-310h179q13 0 22.5 -9.5 t9.5 -22.5v-66q0 -14 -9.5 -23.5t-22.5 -9.5h-179v-311h179q13 0 22.5 -9.5t9.5 -23.5v-65q0 -14 -9.5 -23.5t-22.5 -9.5h-244q-27 0 -46.5 19.5t-19.5 46.5zM92 1374l92 -162q3 -6 13 -6h8q9 0 6 6l-92 162q-4 8 -13 8h-10q-8 0 -4 -8zM115 66q0 -11 10 -11h213q8 0 8 8v5 q0 10 -8 10h-203v420h203q8 0 8 8v4q0 8 -8 8h-203v420h203q8 0 8 8v4q0 8 -8 8h-213q-10 0 -10 -10v-882z" />
<glyph unicode="&#xc9;" horiz-adv-x="550" d="M59 66v882q0 28 19 47t47 19h244q13 0 22.5 -9.5t9.5 -23.5v-66q0 -13 -9.5 -22.5t-22.5 -9.5h-179v-310h179q13 0 22.5 -9.5t9.5 -22.5v-66q0 -14 -9.5 -23.5t-22.5 -9.5h-179v-311h179q13 0 22.5 -9.5t9.5 -23.5v-65q0 -14 -9.5 -23.5t-22.5 -9.5h-244 q-27 0 -46.5 19.5t-19.5 46.5zM115 66q0 -11 10 -11h213q8 0 8 8v5q0 10 -8 10h-203v420h203q8 0 8 8v4q0 8 -8 8h-203v420h203q8 0 8 8v4q0 8 -8 8h-213q-10 0 -10 -10v-882zM163 1162q-6 11 3 26l119 209q7 15 26.5 26t36.5 11h64q19 0 25 -11t-3 -26l-119 -209 q-7 -15 -26.5 -26t-36.5 -11h-64q-19 0 -25 11zM242 1212q-4 -8 4 -8h8q6 0 14 8l90 160q4 8 -4 8h-8q-10 0 -14 -8z" />
<glyph unicode="&#xca;" horiz-adv-x="512" d="M13.5 1162q-6.5 11 2.5 26l119 209q8 14 24.5 25t33.5 12q1 2 38 2t39 -2q17 -1 33.5 -12t24.5 -25l118 -209q9 -15 3 -26t-25 -11h-64q-18 0 -37 11t-28 26l-64 115l-63 -115q-9 -15 -29 -26t-37 -11h-63q-19 0 -25.5 11zM61 66v882q0 28 19 47t47 19h244 q13 0 22.5 -9.5t9.5 -23.5v-66q0 -13 -9.5 -22.5t-22.5 -9.5h-178v-310h178q13 0 22.5 -9.5t9.5 -22.5v-66q0 -14 -9.5 -23.5t-22.5 -9.5h-178v-311h178q13 0 22.5 -9.5t9.5 -23.5v-65q0 -14 -9.5 -23.5t-22.5 -9.5h-244q-27 0 -46.5 19.5t-19.5 46.5zM92 1214q-3 -8 4 -8h8 q10 0 15 8l82 146h61l82 -146q3 -8 14 -8h9q7 0 4 8l-90 160q-8 8 -15 8h-69q-11 0 -15 -8zM117 66q0 -11 10 -11h213q8 0 8 8v5q0 10 -8 10h-203v420h203q8 0 8 8v4q0 8 -8 8h-203v420h203q8 0 8 8v4q0 8 -8 8h-213q-10 0 -10 -10v-882z" />
<glyph unicode="&#xcb;" horiz-adv-x="512" d="M59 66v882q0 28 19 47t47 19h244q13 0 22.5 -9.5t9.5 -23.5v-66q0 -13 -9.5 -22.5t-22.5 -9.5h-179v-310h179q13 0 22.5 -9.5t9.5 -22.5v-66q0 -14 -9.5 -23.5t-22.5 -9.5h-179v-311h179q13 0 22.5 -9.5t9.5 -23.5v-65q0 -14 -9.5 -23.5t-22.5 -9.5h-244 q-27 0 -46.5 19.5t-19.5 46.5zM59 1182v135q0 12 10 22.5t23 10.5h66q13 0 22.5 -10.5t9.5 -22.5v-135q0 -14 -9.5 -23.5t-22.5 -9.5h-66q-14 0 -23.5 9.5t-9.5 23.5zM115 66q0 -11 10 -11h213q8 0 8 8v5q0 10 -8 10h-203v420h203q8 0 8 8v4q0 8 -8 8h-203v420h203q8 0 8 8 v4q0 8 -8 8h-213q-10 0 -10 -10v-882zM115 1210q0 -8 8 -8h4q8 0 8 8v76q0 8 -8 8h-4q-8 0 -8 -8v-76zM270 1182v135q0 12 10 22.5t23 10.5h64q13 0 22.5 -10.5t9.5 -22.5v-135q0 -14 -9.5 -23.5t-22.5 -9.5h-64q-13 0 -23 9.5t-10 23.5zM324 1210q0 -8 8 -8h6q8 0 8 8v76 q0 8 -8 8h-6q-8 0 -8 -8v-76z" />
<glyph unicode="&#xcc;" horiz-adv-x="301" d="M-88.5 1425q6.5 11 25.5 11h63q19 0 38 -11t28 -26l118 -211q9 -15 3 -26t-25 -11h-64q-18 0 -37 11t-28 26l-119 211q-9 15 -2.5 26zM-10 1374l92 -162q3 -6 12 -6h8q5 0 6.5 1.5t0.5 4.5l-93 162q-4 8 -12 8h-10q-8 0 -4 -8zM63 33v948q0 13 9.5 23t23.5 10h66 q12 0 22.5 -10t10.5 -23v-948q0 -13 -9.5 -23t-23.5 -10h-66q-14 0 -23.5 10t-9.5 23zM117 63q0 -8 10 -8h4q8 0 8 8v887q0 8 -8 8h-4q-10 0 -10 -8v-887z" />
<glyph unicode="&#xcd;" horiz-adv-x="301" d="M58.5 1162q-6.5 11 2.5 26l119 209q7 15 26.5 26t37.5 11h63q19 0 25.5 -11t-2.5 -26l-119 -209q-7 -15 -26.5 -26t-37.5 -11h-63q-19 0 -25.5 11zM61 33v948q0 13 9.5 23t23.5 10h66q12 0 22.5 -10t10.5 -23v-948q0 -13 -9.5 -23t-23.5 -10h-66q-14 0 -23.5 10t-9.5 23z M115 63q0 -8 10 -8h4q8 0 8 8v887q0 8 -8 8h-4q-10 0 -10 -8v-887zM137 1212q-4 -8 4 -8h9q6 0 14 8l90 160q4 8 -4 8h-8q-11 0 -15 -8z" />
<glyph unicode="&#xce;" horiz-adv-x="301" d="M-93 1162q-6 11 3 26l119 209q8 14 24 25t33 12q2 2 39 2t39 -2q17 -1 33 -12t24 -25l119 -209q9 -15 2.5 -26t-25.5 -11h-63q-19 0 -38 11t-28 26l-63 115l-64 -115q-9 -15 -28.5 -26t-36.5 -11h-64q-19 0 -25 11zM-14 1214q-3 -8 4 -8h8q9 0 14 8l82 146h62l82 -146 q3 -8 14 -8h8q7 0 4 8l-90 160q-8 8 -14 8h-70q-10 0 -14 -8zM61 33v948q0 13 9.5 23t23.5 10h66q12 0 22.5 -10t10.5 -23v-948q0 -13 -9.5 -23t-23.5 -10h-66q-14 0 -23.5 10t-9.5 23zM115 63q0 -8 10 -8h4q8 0 8 8v887q0 8 -8 8h-4q-10 0 -10 -8v-887z" />
<glyph unicode="&#xcf;" horiz-adv-x="301" d="M-45 1182v135q0 12 10 22.5t23 10.5h65q13 0 23 -10.5t10 -22.5v-135q0 -14 -10 -23.5t-23 -9.5h-65q-14 0 -23.5 9.5t-9.5 23.5zM10 1210q0 -8 8 -8h5q8 0 8 8v76q0 8 -8 8h-5q-8 0 -8 -8v-76zM59 33v948q0 13 9.5 23t23.5 10h66q12 0 22 -10t10 -23v-948 q0 -14 -9.5 -23.5t-22.5 -9.5h-66q-14 0 -23.5 10t-9.5 23zM113 63q0 -8 10 -8h4q8 0 8 8v887q0 8 -8 8h-4q-10 0 -10 -8v-887zM166 1182v135q0 12 10 22.5t23 10.5h63q13 0 23 -10.5t10 -22.5v-135q0 -14 -9.5 -23.5t-23.5 -9.5h-63q-13 0 -23 9.5t-10 23.5zM219 1210 q0 -8 8 -8h6q9 0 9 8v76q0 8 -9 8h-6q-8 0 -8 -8v-76z" />
<glyph unicode="&#xd1;" horiz-adv-x="641" d="M59 33v745q0 97 70 166.5t168 69.5q97 0 166 -69.5t69 -166.5v-745q0 -12 -9.5 -22.5t-22.5 -10.5h-66q-13 0 -23 10.5t-10 22.5v745q0 43 -30.5 74t-73.5 31q-44 0 -75.5 -31t-31.5 -74v-745q0 -12 -9.5 -22.5t-22.5 -10.5h-66q-13 0 -23 10.5t-10 22.5zM115 63 q0 -8 8 -8h4q10 0 10 8v715q0 66 47 113t113 47t113 -47t47 -113v-715q0 -8 8 -8h4q8 0 8 8v715q0 75 -52.5 127.5t-127.5 52.5t-128.5 -52.5t-53.5 -127.5v-715zM125 1182v65q0 13 9.5 23t23.5 10h276q14 0 23.5 -10t9.5 -23v-65q0 -14 -9.5 -23.5t-23.5 -9.5h-276 q-14 0 -23.5 9.5t-9.5 23.5zM180 1212q0 -8 8 -8h215q9 0 9 8v5q0 8 -9 8h-215q-8 0 -8 -8v-5z" />
<glyph unicode="&#xd2;" d="M59 238v540q0 97 70 166.5t168 69.5q97 0 166 -69.5t69 -166.5v-540q0 -98 -69 -168t-166 -70q-98 0 -168 70t-70 168zM79 1425q6 11 25 11h64q18 0 37 -11t28 -26l119 -211q9 -15 3 -26t-25 -11h-64q-18 0 -37 11t-28 26l-119 211q-9 15 -3 26zM115 238q0 -75 53.5 -129 t128.5 -54t127.5 54t52.5 129v540q0 75 -52.5 127.5t-127.5 52.5t-128.5 -52.5t-53.5 -127.5v-540zM137 238v540q0 66 47 113t113 47t113 -47t47 -113v-540q0 -66 -47 -113t-113 -47t-113 47t-47 113zM158 1374l92 -162q3 -6 12 -6h8q9 0 6 6l-92 162q-4 8 -12 8h-10 q-8 0 -4 -8zM190 238q0 -44 31.5 -75.5t75.5 -31.5q43 0 73.5 31.5t30.5 75.5v540q0 43 -30.5 74t-73.5 31q-44 0 -75.5 -31t-31.5 -74v-540z" />
<glyph unicode="&#xd3;" d="M59 238v540q0 97 70 166.5t168 69.5q97 0 166 -69.5t69 -166.5v-540q0 -98 -69 -168t-166 -70q-98 0 -168 70t-70 168zM115 238q0 -75 53.5 -129t128.5 -54t127.5 54t52.5 129v540q0 75 -52.5 127.5t-127.5 52.5t-128.5 -52.5t-53.5 -127.5v-540zM137 238v540 q0 66 47 113t113 47t113 -47t47 -113v-540q0 -66 -47 -113t-113 -47t-113 47t-47 113zM190 238q0 -44 31.5 -75.5t75.5 -31.5q43 0 73.5 31.5t30.5 75.5v540q0 43 -30.5 74t-73.5 31q-44 0 -75.5 -31t-31.5 -74v-540zM237 1162q-6 11 3 26l118 209q7 15 26.5 26t37.5 11h63 q19 0 25.5 -11t-2.5 -26l-119 -209q-7 -15 -26.5 -26t-36.5 -11h-64q-19 0 -25 11zM315 1212q-4 -8 4 -8h9q6 0 14 8l90 160q4 8 -4 8h-8q-10 0 -14 -8z" />
<glyph unicode="&#xd4;" horiz-adv-x="641" d="M59 238v540q0 97 70 166.5t168 69.5q97 0 166 -69.5t69 -166.5v-540q0 -98 -69 -168t-166 -70q-98 0 -168 70t-70 168zM77 1162q-6 11 3 26l119 209q8 14 24 25t33 12q2 2 39 2t39 -2q17 -1 33 -12t24 -25l119 -209q9 -15 2.5 -26t-25.5 -11h-63q-19 0 -38 11t-28 26 l-63 115l-64 -115q-9 -15 -28.5 -26t-36.5 -11h-64q-19 0 -25 11zM115 238q0 -75 53.5 -129t128.5 -54t127.5 54t52.5 129v540q0 75 -52.5 127.5t-127.5 52.5t-128.5 -52.5t-53.5 -127.5v-540zM137 238v540q0 66 47 113t113 47t113 -47t47 -113v-540q0 -66 -47 -113 t-113 -47t-113 47t-47 113zM156 1214q-3 -8 4 -8h8q9 0 14 8l82 146h62l82 -146q3 -8 14 -8h8q7 0 4 8l-90 160q-8 8 -14 8h-70q-10 0 -14 -8zM190 238q0 -44 31.5 -75.5t75.5 -31.5q43 0 73.5 31.5t30.5 75.5v540q0 43 -30.5 74t-73.5 31q-44 0 -75.5 -31t-31.5 -74v-540z " />
<glyph unicode="&#xd5;" horiz-adv-x="1705" />
<glyph unicode="&#xd6;" d="M59 238v540q0 97 70 166.5t168 69.5q97 0 166 -69.5t69 -166.5v-540q0 -98 -69 -168t-166 -70q-98 0 -168 70t-70 168zM115 238q0 -75 53.5 -129t128.5 -54t127.5 54t52.5 129v540q0 75 -52.5 127.5t-127.5 52.5t-128.5 -52.5t-53.5 -127.5v-540zM125 1182v135 q0 12 10 22.5t23 10.5h65q13 0 23 -10.5t10 -22.5v-135q0 -14 -10 -23.5t-23 -9.5h-65q-14 0 -23.5 9.5t-9.5 23.5zM137 238v540q0 66 47 113t113 47t113 -47t47 -113v-540q0 -66 -47 -113t-113 -47t-113 47t-47 113zM180 1210q0 -8 8 -8h5q8 0 8 8v76q0 8 -8 8h-5 q-8 0 -8 -8v-76zM190 238q0 -44 31.5 -75.5t75.5 -31.5q43 0 73.5 31.5t30.5 75.5v540q0 43 -30.5 74t-73.5 31q-44 0 -75.5 -31t-31.5 -74v-540zM336 1182v135q0 12 10 22.5t23 10.5h63q13 0 23 -10.5t10 -22.5v-135q0 -14 -9.5 -23.5t-23.5 -9.5h-63q-13 0 -23 9.5 t-10 23.5zM389 1210q0 -8 8 -8h6q9 0 9 8v76q0 8 -9 8h-6q-8 0 -8 -8v-76z" />
<glyph unicode="&#xd8;" horiz-adv-x="1705" />
<glyph unicode="&#xd9;" d="M59 238v743q0 13 10.5 23t22.5 10h66q13 0 22.5 -9.5t9.5 -23.5v-743q0 -44 31.5 -75.5t75.5 -31.5q43 0 73.5 31.5t30.5 75.5v743q0 13 9.5 23t23.5 10h66q13 0 22.5 -9.5t9.5 -23.5v-743q0 -98 -69 -168t-166 -70q-98 0 -168 70t-70 168zM79 1425q6 11 25 11h64 q18 0 37 -11t28 -26l119 -211q9 -15 3 -26t-25 -11h-64q-18 0 -37 11t-28 26l-119 211q-9 15 -3 26zM115 238q0 -75 53.5 -129t128.5 -54t128.5 54t53.5 129v712q0 8 -10 8h-4q-8 0 -8 -8v-712q0 -66 -47 -113t-113 -47t-113 47t-47 113v712q0 8 -8 8h-6q-8 0 -8 -8v-712z M158 1374l92 -162q3 -6 12 -6h8q9 0 6 6l-92 162q-4 8 -12 8h-10q-8 0 -4 -8z" />
<glyph unicode="&#xda;" d="M59 238v743q0 13 10.5 23t22.5 10h66q13 0 22.5 -9.5t9.5 -23.5v-743q0 -44 31.5 -75.5t75.5 -31.5q43 0 73.5 31.5t30.5 75.5v743q0 13 9.5 23t23.5 10h66q13 0 22.5 -9.5t9.5 -23.5v-743q0 -98 -69 -168t-166 -70q-98 0 -168 70t-70 168zM115 238q0 -75 53.5 -129 t128.5 -54t128.5 54t53.5 129v712q0 8 -10 8h-4q-8 0 -8 -8v-712q0 -66 -47 -113t-113 -47t-113 47t-47 113v712q0 8 -8 8h-6q-8 0 -8 -8v-712zM226.5 1162q-6.5 11 2.5 26l119 209q7 15 26.5 26t37.5 11h63q19 0 25.5 -11t-2.5 -26l-119 -209q-7 -15 -26.5 -26t-37.5 -11 h-63q-19 0 -25.5 11zM305 1212q-4 -8 4 -8h8q7 0 15 8l90 160q4 8 -4 8h-8q-11 0 -15 -8z" />
<glyph unicode="&#xdb;" d="M59 238v743q0 13 10.5 23t22.5 10h66q13 0 22.5 -9.5t9.5 -23.5v-743q0 -44 31.5 -75.5t75.5 -31.5q43 0 73.5 31.5t30.5 75.5v743q0 13 9.5 23t23.5 10h66q13 0 22.5 -9.5t9.5 -23.5v-743q0 -98 -69 -168t-166 -70q-98 0 -168 70t-70 168zM77 1162q-6 11 3 26l119 209 q8 14 24 25t33 12q2 2 39 2t39 -2q17 -1 33 -12t24 -25l119 -209q9 -15 2.5 -26t-25.5 -11h-63q-19 0 -38 11t-28 26l-63 115l-64 -115q-9 -15 -28.5 -26t-36.5 -11h-64q-19 0 -25 11zM115 238q0 -75 53.5 -129t128.5 -54t128.5 54t53.5 129v712q0 8 -10 8h-4q-8 0 -8 -8 v-712q0 -66 -47 -113t-113 -47t-113 47t-47 113v712q0 8 -8 8h-6q-8 0 -8 -8v-712zM156 1214q-3 -8 4 -8h8q9 0 14 8l82 146h62l82 -146q3 -8 14 -8h8q7 0 4 8l-90 160q-8 8 -14 8h-70q-10 0 -14 -8z" />
<glyph unicode="&#xdc;" d="M59 238v743q0 13 10.5 23t22.5 10h66q13 0 22.5 -9.5t9.5 -23.5v-743q0 -44 31.5 -75.5t75.5 -31.5q43 0 73.5 31.5t30.5 75.5v743q0 13 9.5 23t23.5 10h66q13 0 22.5 -9.5t9.5 -23.5v-743q0 -98 -69 -168t-166 -70q-98 0 -168 70t-70 168zM115 238q0 -75 53.5 -129 t128.5 -54t128.5 54t53.5 129v712q0 8 -10 8h-4q-8 0 -8 -8v-712q0 -66 -47 -113t-113 -47t-113 47t-47 113v712q0 8 -8 8h-6q-8 0 -8 -8v-712zM125 1182v135q0 12 10 22.5t23 10.5h65q13 0 23 -10.5t10 -22.5v-135q0 -14 -10 -23.5t-23 -9.5h-65q-14 0 -23.5 9.5t-9.5 23.5 zM180 1210q0 -8 8 -8h5q8 0 8 8v76q0 8 -8 8h-5q-8 0 -8 -8v-76zM336 1182v135q0 12 10 22.5t23 10.5h63q13 0 23 -10.5t10 -22.5v-135q0 -14 -9.5 -23.5t-23.5 -9.5h-63q-13 0 -23 9.5t-10 23.5zM389 1210q0 -8 8 -8h6q9 0 9 8v76q0 8 -9 8h-6q-8 0 -8 -8v-76z" />
<glyph unicode="&#xdd;" horiz-adv-x="1705" />
<glyph unicode="&#xe0;" d="M59 33v743q0 98 69.5 167t166.5 69q98 0 167.5 -69t69.5 -167v-743q0 -14 -9.5 -23.5t-22.5 -9.5h-66q-14 0 -23.5 10t-9.5 23v409h-211v-409q0 -14 -9.5 -23.5t-22.5 -9.5h-66q-14 0 -23.5 10t-9.5 23zM79 1425q6 11 25 11h64q18 0 37 -11t28 -26l119 -211q9 -15 3 -26 t-25 -11h-64q-18 0 -37 11t-28 26l-119 211q-9 15 -3 26zM115 63q0 -10 8 -10h4q8 0 8 10v433h320v-433q0 -10 10 -10h4q8 0 8 10v713q0 75 -53.5 128.5t-128.5 53.5t-127.5 -53.5t-52.5 -128.5v-713zM135 518v258q0 66 47 113t113 47t113 -47t47 -113v-258h-320zM158 1374 l92 -162q3 -6 12 -6h8q9 0 6 6l-92 162q-4 8 -12 8h-10q-8 0 -4 -8zM190 573h211v203q0 43 -31 74t-75 31q-43 0 -74 -31t-31 -74v-203z" />
<glyph unicode="&#xe1;" d="M59 33v743q0 98 70 167t168 69q97 0 166 -69t69 -167v-743q0 -14 -9.5 -23.5t-22.5 -9.5h-66q-14 0 -23.5 10t-9.5 23v409h-211v-409q0 -14 -9.5 -23.5t-22.5 -9.5h-66q-14 0 -23.5 10t-9.5 23zM115 63q0 -10 8 -10h4q10 0 10 10v433h320v-433q0 -10 8 -10h4q8 0 8 10 v713q0 75 -53 128.5t-127 53.5q-75 0 -128.5 -53.5t-53.5 -128.5v-713zM137 518v258q0 66 47 113t113 47t113 -47t47 -113v-258h-320zM190 573h211v203q0 43 -30.5 74t-73.5 31q-44 0 -75.5 -31t-31.5 -74v-203zM228.5 1162q-6.5 11 2.5 26l119 209q7 15 26.5 26t37.5 11h63 q19 0 25.5 -11t-2.5 -26l-119 -209q-7 -15 -26.5 -26t-37.5 -11h-63q-19 0 -25.5 11zM307 1212q-4 -8 4 -8h8q7 0 15 8l90 160q4 8 -4 8h-8q-11 0 -15 -8z" />
<glyph unicode="&#xe2;" d="M59 33v743q0 98 70 167t168 69q97 0 166 -69t69 -167v-743q0 -14 -9.5 -23.5t-22.5 -9.5h-66q-14 0 -23.5 10t-9.5 23v409h-211v-409q0 -14 -9.5 -23.5t-22.5 -9.5h-66q-14 0 -23.5 10t-9.5 23zM77 1162q-6 11 3 26l119 209q8 14 24 25t33 12q2 2 39 2t39 -2 q17 -1 33 -12t24 -25l119 -209q9 -15 2.5 -26t-25.5 -11h-63q-19 0 -38 11t-28 26l-63 115l-64 -115q-9 -15 -28.5 -26t-36.5 -11h-64q-19 0 -25 11zM115 63q0 -10 8 -10h4q10 0 10 10v433h320v-433q0 -10 8 -10h4q8 0 8 10v713q0 75 -53 128.5t-127 53.5 q-75 0 -128.5 -53.5t-53.5 -128.5v-713zM137 518v258q0 66 47 113t113 47t113 -47t47 -113v-258h-320zM156 1214q-3 -8 4 -8h8q9 0 14 8l82 146h62l82 -146q3 -8 14 -8h8q7 0 4 8l-90 160q-8 8 -14 8h-70q-10 0 -14 -8zM190 573h211v203q0 43 -30.5 74t-73.5 31 q-44 0 -75.5 -31t-31.5 -74v-203z" />
<glyph unicode="&#xe4;" d="M59 33v743q0 98 70 167t168 69q97 0 166 -69t69 -167v-743q0 -14 -9.5 -23.5t-22.5 -9.5h-66q-14 0 -23.5 10t-9.5 23v409h-211v-409q0 -14 -9.5 -23.5t-22.5 -9.5h-66q-14 0 -23.5 10t-9.5 23zM115 63q0 -10 8 -10h4q10 0 10 10v433h320v-433q0 -10 8 -10h4q8 0 8 10 v713q0 75 -53 128.5t-127 53.5q-75 0 -128.5 -53.5t-53.5 -128.5v-713zM125 1182v135q0 12 10 22.5t23 10.5h65q13 0 23 -10.5t10 -22.5v-135q0 -14 -10 -23.5t-23 -9.5h-65q-14 0 -23.5 9.5t-9.5 23.5zM137 518v258q0 66 47 113t113 47t113 -47t47 -113v-258h-320z M180 1210q0 -8 8 -8h5q8 0 8 8v76q0 8 -8 8h-5q-8 0 -8 -8v-76zM190 573h211v203q0 43 -30.5 74t-73.5 31q-44 0 -75.5 -31t-31.5 -74v-203zM336 1182v135q0 12 10 22.5t23 10.5h63q13 0 23 -10.5t10 -22.5v-135q0 -14 -9.5 -23.5t-23.5 -9.5h-63q-13 0 -23 9.5t-10 23.5z M389 1210q0 -8 8 -8h6q9 0 9 8v76q0 8 -9 8h-6q-8 0 -8 -8v-76z" />
<glyph unicode="&#xe7;" horiz-adv-x="641" d="M59 236v544q0 98 69.5 167t166.5 69q98 0 167.5 -69t69.5 -167v-69q0 -13 -10 -23t-22 -10h-66q-14 0 -23.5 10t-9.5 23v69q0 43 -31 74t-75 31q-43 0 -74 -31t-31 -74v-544q0 -43 31 -74t74 -31q44 0 75 31t31 74v75q0 13 9.5 23t23.5 10h66q12 0 22 -10t10 -23v-75 q0 -79 -49 -142.5t-123 -85.5v-102q0 -14 -9.5 -23.5t-22.5 -9.5h-66q-14 0 -23.5 9.5t-9.5 23.5v102q-74 22 -122 85.5t-48 142.5zM115 236q0 -72 49 -125t121 -56v-118q0 -9 8 -9h4q10 0 10 9v118q70 3 120 56t50 125v47q0 8 -8 8h-6q-8 0 -8 -8v-47q0 -66 -47 -113 t-113 -47t-113 47t-47 113v544q0 66 47 113t113 47t113 -47t47 -113v-16h22v16q0 75 -53.5 129t-128.5 54t-127.5 -54t-52.5 -129v-544zM455 741q0 -10 8 -10h6q8 0 8 10v23h-22v-23z" />
<glyph unicode="&#xe8;" horiz-adv-x="512" d="M13.5 1425q6.5 11 25.5 11h63q19 0 38 -11t28 -26l119 -211q9 -15 2.5 -26t-25.5 -11h-63q-19 0 -38 11t-28 26l-119 211q-9 15 -2.5 26zM59 66v882q0 28 19 47t47 19h244q13 0 22.5 -9.5t9.5 -23.5v-66q0 -13 -9.5 -22.5t-22.5 -9.5h-179v-310h179q13 0 22.5 -9.5 t9.5 -22.5v-66q0 -14 -9.5 -23.5t-22.5 -9.5h-179v-311h179q13 0 22.5 -9.5t9.5 -23.5v-65q0 -14 -9.5 -23.5t-22.5 -9.5h-244q-27 0 -46.5 19.5t-19.5 46.5zM92 1374l92 -162q3 -6 13 -6h8q9 0 6 6l-92 162q-4 8 -13 8h-10q-8 0 -4 -8zM115 66q0 -11 10 -11h213q8 0 8 8v5 q0 10 -8 10h-203v420h203q8 0 8 8v4q0 8 -8 8h-203v420h203q8 0 8 8v4q0 8 -8 8h-213q-10 0 -10 -10v-882z" />
<glyph unicode="&#xe9;" horiz-adv-x="550" d="M59 66v882q0 28 19 47t47 19h244q13 0 22.5 -9.5t9.5 -23.5v-66q0 -13 -9.5 -22.5t-22.5 -9.5h-179v-310h179q13 0 22.5 -9.5t9.5 -22.5v-66q0 -14 -9.5 -23.5t-22.5 -9.5h-179v-311h179q13 0 22.5 -9.5t9.5 -23.5v-65q0 -14 -9.5 -23.5t-22.5 -9.5h-244 q-27 0 -46.5 19.5t-19.5 46.5zM115 66q0 -11 10 -11h213q8 0 8 8v5q0 10 -8 10h-203v420h203q8 0 8 8v4q0 8 -8 8h-203v420h203q8 0 8 8v4q0 8 -8 8h-213q-10 0 -10 -10v-882zM163 1162q-6 11 3 26l119 209q7 15 26.5 26t36.5 11h64q19 0 25 -11t-3 -26l-119 -209 q-7 -15 -26.5 -26t-36.5 -11h-64q-19 0 -25 11zM242 1212q-4 -8 4 -8h8q6 0 14 8l90 160q4 8 -4 8h-8q-10 0 -14 -8z" />
<glyph unicode="&#xea;" horiz-adv-x="512" d="M13.5 1162q-6.5 11 2.5 26l119 209q8 14 24.5 25t33.5 12q1 2 38 2t39 -2q17 -1 33.5 -12t24.5 -25l118 -209q9 -15 3 -26t-25 -11h-64q-18 0 -37 11t-28 26l-64 115l-63 -115q-9 -15 -29 -26t-37 -11h-63q-19 0 -25.5 11zM61 66v882q0 28 19 47t47 19h244 q13 0 22.5 -9.5t9.5 -23.5v-66q0 -13 -9.5 -22.5t-22.5 -9.5h-178v-310h178q13 0 22.5 -9.5t9.5 -22.5v-66q0 -14 -9.5 -23.5t-22.5 -9.5h-178v-311h178q13 0 22.5 -9.5t9.5 -23.5v-65q0 -14 -9.5 -23.5t-22.5 -9.5h-244q-27 0 -46.5 19.5t-19.5 46.5zM92 1214q-3 -8 4 -8h8 q10 0 15 8l82 146h61l82 -146q3 -8 14 -8h9q7 0 4 8l-90 160q-8 8 -15 8h-69q-11 0 -15 -8zM117 66q0 -11 10 -11h213q8 0 8 8v5q0 10 -8 10h-203v420h203q8 0 8 8v4q0 8 -8 8h-203v420h203q8 0 8 8v4q0 8 -8 8h-213q-10 0 -10 -10v-882z" />
<glyph unicode="&#xeb;" horiz-adv-x="512" d="M59 66v882q0 28 19 47t47 19h244q13 0 22.5 -9.5t9.5 -23.5v-66q0 -13 -9.5 -22.5t-22.5 -9.5h-179v-310h179q13 0 22.5 -9.5t9.5 -22.5v-66q0 -14 -9.5 -23.5t-22.5 -9.5h-179v-311h179q13 0 22.5 -9.5t9.5 -23.5v-65q0 -14 -9.5 -23.5t-22.5 -9.5h-244 q-27 0 -46.5 19.5t-19.5 46.5zM59 1182v135q0 12 10 22.5t23 10.5h66q13 0 22.5 -10.5t9.5 -22.5v-135q0 -14 -9.5 -23.5t-22.5 -9.5h-66q-14 0 -23.5 9.5t-9.5 23.5zM115 66q0 -11 10 -11h213q8 0 8 8v5q0 10 -8 10h-203v420h203q8 0 8 8v4q0 8 -8 8h-203v420h203q8 0 8 8 v4q0 8 -8 8h-213q-10 0 -10 -10v-882zM115 1210q0 -8 8 -8h4q8 0 8 8v76q0 8 -8 8h-4q-8 0 -8 -8v-76zM270 1182v135q0 12 10 22.5t23 10.5h64q13 0 22.5 -10.5t9.5 -22.5v-135q0 -14 -9.5 -23.5t-22.5 -9.5h-64q-13 0 -23 9.5t-10 23.5zM324 1210q0 -8 8 -8h6q8 0 8 8v76 q0 8 -8 8h-6q-8 0 -8 -8v-76z" />
<glyph unicode="&#xec;" horiz-adv-x="301" d="M-88.5 1425q6.5 11 25.5 11h63q19 0 38 -11t28 -26l118 -211q9 -15 3 -26t-25 -11h-64q-18 0 -37 11t-28 26l-119 211q-9 15 -2.5 26zM-10 1374l92 -162q3 -6 12 -6h8q5 0 6.5 1.5t0.5 4.5l-93 162q-4 8 -12 8h-10q-8 0 -4 -8zM63 33v948q0 13 9.5 23t23.5 10h66 q12 0 22.5 -10t10.5 -23v-948q0 -13 -9.5 -23t-23.5 -10h-66q-14 0 -23.5 10t-9.5 23zM117 63q0 -8 10 -8h4q8 0 8 8v887q0 8 -8 8h-4q-10 0 -10 -8v-887z" />
<glyph unicode="&#xed;" horiz-adv-x="301" d="M58.5 1162q-6.5 11 2.5 26l119 209q7 15 26.5 26t37.5 11h63q19 0 25.5 -11t-2.5 -26l-119 -209q-7 -15 -26.5 -26t-37.5 -11h-63q-19 0 -25.5 11zM61 33v948q0 13 9.5 23t23.5 10h66q12 0 22.5 -10t10.5 -23v-948q0 -13 -9.5 -23t-23.5 -10h-66q-14 0 -23.5 10t-9.5 23z M115 63q0 -8 10 -8h4q8 0 8 8v887q0 8 -8 8h-4q-10 0 -10 -8v-887zM137 1212q-4 -8 4 -8h9q6 0 14 8l90 160q4 8 -4 8h-8q-11 0 -15 -8z" />
<glyph unicode="&#xee;" horiz-adv-x="301" d="M-93 1162q-6 11 3 26l119 209q8 14 24 25t33 12q2 2 39 2t39 -2q17 -1 33 -12t24 -25l119 -209q9 -15 2.5 -26t-25.5 -11h-63q-19 0 -38 11t-28 26l-63 115l-64 -115q-9 -15 -28.5 -26t-36.5 -11h-64q-19 0 -25 11zM-14 1214q-3 -8 4 -8h8q9 0 14 8l82 146h62l82 -146 q3 -8 14 -8h8q7 0 4 8l-90 160q-8 8 -14 8h-70q-10 0 -14 -8zM61 33v948q0 13 9.5 23t23.5 10h66q12 0 22.5 -10t10.5 -23v-948q0 -13 -9.5 -23t-23.5 -10h-66q-14 0 -23.5 10t-9.5 23zM115 63q0 -8 10 -8h4q8 0 8 8v887q0 8 -8 8h-4q-10 0 -10 -8v-887z" />
<glyph unicode="&#xef;" horiz-adv-x="301" d="M-45 1182v135q0 12 10 22.5t23 10.5h65q13 0 23 -10.5t10 -22.5v-135q0 -14 -10 -23.5t-23 -9.5h-65q-14 0 -23.5 9.5t-9.5 23.5zM10 1210q0 -8 8 -8h5q8 0 8 8v76q0 8 -8 8h-5q-8 0 -8 -8v-76zM59 33v948q0 13 9.5 23t23.5 10h66q12 0 22 -10t10 -23v-948 q0 -14 -9.5 -23.5t-22.5 -9.5h-66q-14 0 -23.5 10t-9.5 23zM113 63q0 -8 10 -8h4q8 0 8 8v887q0 8 -8 8h-4q-10 0 -10 -8v-887zM166 1182v135q0 12 10 22.5t23 10.5h63q13 0 23 -10.5t10 -22.5v-135q0 -14 -9.5 -23.5t-23.5 -9.5h-63q-13 0 -23 9.5t-10 23.5zM219 1210 q0 -8 8 -8h6q9 0 9 8v76q0 8 -9 8h-6q-8 0 -8 -8v-76z" />
<glyph unicode="&#xf1;" horiz-adv-x="641" d="M59 33v745q0 97 70 166.5t168 69.5q97 0 166 -69.5t69 -166.5v-745q0 -12 -9.5 -22.5t-22.5 -10.5h-66q-13 0 -23 10.5t-10 22.5v745q0 43 -30.5 74t-73.5 31q-44 0 -75.5 -31t-31.5 -74v-745q0 -12 -9.5 -22.5t-22.5 -10.5h-66q-13 0 -23 10.5t-10 22.5zM115 63 q0 -8 8 -8h4q10 0 10 8v715q0 66 47 113t113 47t113 -47t47 -113v-715q0 -8 8 -8h4q8 0 8 8v715q0 75 -52.5 127.5t-127.5 52.5t-128.5 -52.5t-53.5 -127.5v-715zM125 1182v65q0 13 9.5 23t23.5 10h276q14 0 23.5 -10t9.5 -23v-65q0 -14 -9.5 -23.5t-23.5 -9.5h-276 q-14 0 -23.5 9.5t-9.5 23.5zM180 1212q0 -8 8 -8h215q9 0 9 8v5q0 8 -9 8h-215q-8 0 -8 -8v-5z" />
<glyph unicode="&#xf2;" d="M59 238v540q0 97 70 166.5t168 69.5q97 0 166 -69.5t69 -166.5v-540q0 -98 -69 -168t-166 -70q-98 0 -168 70t-70 168zM79 1425q6 11 25 11h64q18 0 37 -11t28 -26l119 -211q9 -15 3 -26t-25 -11h-64q-18 0 -37 11t-28 26l-119 211q-9 15 -3 26zM115 238q0 -75 53.5 -129 t128.5 -54t127.5 54t52.5 129v540q0 75 -52.5 127.5t-127.5 52.5t-128.5 -52.5t-53.5 -127.5v-540zM137 238v540q0 66 47 113t113 47t113 -47t47 -113v-540q0 -66 -47 -113t-113 -47t-113 47t-47 113zM158 1374l92 -162q3 -6 12 -6h8q9 0 6 6l-92 162q-4 8 -12 8h-10 q-8 0 -4 -8zM190 238q0 -44 31.5 -75.5t75.5 -31.5q43 0 73.5 31.5t30.5 75.5v540q0 43 -30.5 74t-73.5 31q-44 0 -75.5 -31t-31.5 -74v-540z" />
<glyph unicode="&#xf3;" d="M59 238v540q0 97 70 166.5t168 69.5q97 0 166 -69.5t69 -166.5v-540q0 -98 -69 -168t-166 -70q-98 0 -168 70t-70 168zM115 238q0 -75 53.5 -129t128.5 -54t127.5 54t52.5 129v540q0 75 -52.5 127.5t-127.5 52.5t-128.5 -52.5t-53.5 -127.5v-540zM137 238v540 q0 66 47 113t113 47t113 -47t47 -113v-540q0 -66 -47 -113t-113 -47t-113 47t-47 113zM190 238q0 -44 31.5 -75.5t75.5 -31.5q43 0 73.5 31.5t30.5 75.5v540q0 43 -30.5 74t-73.5 31q-44 0 -75.5 -31t-31.5 -74v-540zM237 1162q-6 11 3 26l118 209q7 15 26.5 26t37.5 11h63 q19 0 25.5 -11t-2.5 -26l-119 -209q-7 -15 -26.5 -26t-36.5 -11h-64q-19 0 -25 11zM315 1212q-4 -8 4 -8h9q6 0 14 8l90 160q4 8 -4 8h-8q-10 0 -14 -8z" />
<glyph unicode="&#xf4;" horiz-adv-x="641" d="M59 238v540q0 97 70 166.5t168 69.5q97 0 166 -69.5t69 -166.5v-540q0 -98 -69 -168t-166 -70q-98 0 -168 70t-70 168zM77 1162q-6 11 3 26l119 209q8 14 24 25t33 12q2 2 39 2t39 -2q17 -1 33 -12t24 -25l119 -209q9 -15 2.5 -26t-25.5 -11h-63q-19 0 -38 11t-28 26 l-63 115l-64 -115q-9 -15 -28.5 -26t-36.5 -11h-64q-19 0 -25 11zM115 238q0 -75 53.5 -129t128.5 -54t127.5 54t52.5 129v540q0 75 -52.5 127.5t-127.5 52.5t-128.5 -52.5t-53.5 -127.5v-540zM137 238v540q0 66 47 113t113 47t113 -47t47 -113v-540q0 -66 -47 -113 t-113 -47t-113 47t-47 113zM156 1214q-3 -8 4 -8h8q9 0 14 8l82 146h62l82 -146q3 -8 14 -8h8q7 0 4 8l-90 160q-8 8 -14 8h-70q-10 0 -14 -8zM190 238q0 -44 31.5 -75.5t75.5 -31.5q43 0 73.5 31.5t30.5 75.5v540q0 43 -30.5 74t-73.5 31q-44 0 -75.5 -31t-31.5 -74v-540z " />
<glyph unicode="&#xf6;" d="M59 238v540q0 97 70 166.5t168 69.5q97 0 166 -69.5t69 -166.5v-540q0 -98 -69 -168t-166 -70q-98 0 -168 70t-70 168zM115 238q0 -75 53.5 -129t128.5 -54t127.5 54t52.5 129v540q0 75 -52.5 127.5t-127.5 52.5t-128.5 -52.5t-53.5 -127.5v-540zM125 1182v135 q0 12 10 22.5t23 10.5h65q13 0 23 -10.5t10 -22.5v-135q0 -14 -10 -23.5t-23 -9.5h-65q-14 0 -23.5 9.5t-9.5 23.5zM137 238v540q0 66 47 113t113 47t113 -47t47 -113v-540q0 -66 -47 -113t-113 -47t-113 47t-47 113zM180 1210q0 -8 8 -8h5q8 0 8 8v76q0 8 -8 8h-5 q-8 0 -8 -8v-76zM190 238q0 -44 31.5 -75.5t75.5 -31.5q43 0 73.5 31.5t30.5 75.5v540q0 43 -30.5 74t-73.5 31q-44 0 -75.5 -31t-31.5 -74v-540zM336 1182v135q0 12 10 22.5t23 10.5h63q13 0 23 -10.5t10 -22.5v-135q0 -14 -9.5 -23.5t-23.5 -9.5h-63q-13 0 -23 9.5 t-10 23.5zM389 1210q0 -8 8 -8h6q9 0 9 8v76q0 8 -9 8h-6q-8 0 -8 -8v-76z" />
<glyph unicode="&#xf9;" d="M59 238v743q0 13 10.5 23t22.5 10h66q13 0 22.5 -9.5t9.5 -23.5v-743q0 -44 31.5 -75.5t75.5 -31.5q43 0 73.5 31.5t30.5 75.5v743q0 13 9.5 23t23.5 10h66q13 0 22.5 -9.5t9.5 -23.5v-743q0 -98 -69 -168t-166 -70q-98 0 -168 70t-70 168zM79 1425q6 11 25 11h64 q18 0 37 -11t28 -26l119 -211q9 -15 3 -26t-25 -11h-64q-18 0 -37 11t-28 26l-119 211q-9 15 -3 26zM115 238q0 -75 53.5 -129t128.5 -54t128.5 54t53.5 129v712q0 8 -10 8h-4q-8 0 -8 -8v-712q0 -66 -47 -113t-113 -47t-113 47t-47 113v712q0 8 -8 8h-6q-8 0 -8 -8v-712z M158 1374l92 -162q3 -6 12 -6h8q9 0 6 6l-92 162q-4 8 -12 8h-10q-8 0 -4 -8z" />
<glyph unicode="&#xfa;" d="M59 238v743q0 13 10.5 23t22.5 10h66q13 0 22.5 -9.5t9.5 -23.5v-743q0 -44 31.5 -75.5t75.5 -31.5q43 0 73.5 31.5t30.5 75.5v743q0 13 9.5 23t23.5 10h66q13 0 22.5 -9.5t9.5 -23.5v-743q0 -98 -69 -168t-166 -70q-98 0 -168 70t-70 168zM115 238q0 -75 53.5 -129 t128.5 -54t128.5 54t53.5 129v712q0 8 -10 8h-4q-8 0 -8 -8v-712q0 -66 -47 -113t-113 -47t-113 47t-47 113v712q0 8 -8 8h-6q-8 0 -8 -8v-712zM226.5 1162q-6.5 11 2.5 26l119 209q7 15 26.5 26t37.5 11h63q19 0 25.5 -11t-2.5 -26l-119 -209q-7 -15 -26.5 -26t-37.5 -11 h-63q-19 0 -25.5 11zM305 1212q-4 -8 4 -8h8q7 0 15 8l90 160q4 8 -4 8h-8q-11 0 -15 -8z" />
<glyph unicode="&#xfb;" d="M59 238v743q0 13 10.5 23t22.5 10h66q13 0 22.5 -9.5t9.5 -23.5v-743q0 -44 31.5 -75.5t75.5 -31.5q43 0 73.5 31.5t30.5 75.5v743q0 13 9.5 23t23.5 10h66q13 0 22.5 -9.5t9.5 -23.5v-743q0 -98 -69 -168t-166 -70q-98 0 -168 70t-70 168zM77 1162q-6 11 3 26l119 209 q8 14 24 25t33 12q2 2 39 2t39 -2q17 -1 33 -12t24 -25l119 -209q9 -15 2.5 -26t-25.5 -11h-63q-19 0 -38 11t-28 26l-63 115l-64 -115q-9 -15 -28.5 -26t-36.5 -11h-64q-19 0 -25 11zM115 238q0 -75 53.5 -129t128.5 -54t128.5 54t53.5 129v712q0 8 -10 8h-4q-8 0 -8 -8 v-712q0 -66 -47 -113t-113 -47t-113 47t-47 113v712q0 8 -8 8h-6q-8 0 -8 -8v-712zM156 1214q-3 -8 4 -8h8q9 0 14 8l82 146h62l82 -146q3 -8 14 -8h8q7 0 4 8l-90 160q-8 8 -14 8h-70q-10 0 -14 -8z" />
<glyph unicode="&#xfc;" d="M59 238v743q0 13 10.5 23t22.5 10h66q13 0 22.5 -9.5t9.5 -23.5v-743q0 -44 31.5 -75.5t75.5 -31.5q43 0 73.5 31.5t30.5 75.5v743q0 13 9.5 23t23.5 10h66q13 0 22.5 -9.5t9.5 -23.5v-743q0 -98 -69 -168t-166 -70q-98 0 -168 70t-70 168zM115 238q0 -75 53.5 -129 t128.5 -54t128.5 54t53.5 129v712q0 8 -10 8h-4q-8 0 -8 -8v-712q0 -66 -47 -113t-113 -47t-113 47t-47 113v712q0 8 -8 8h-6q-8 0 -8 -8v-712zM125 1182v135q0 12 10 22.5t23 10.5h65q13 0 23 -10.5t10 -22.5v-135q0 -14 -10 -23.5t-23 -9.5h-65q-14 0 -23.5 9.5t-9.5 23.5 zM180 1210q0 -8 8 -8h5q8 0 8 8v76q0 8 -8 8h-5q-8 0 -8 -8v-76zM336 1182v135q0 12 10 22.5t23 10.5h63q13 0 23 -10.5t10 -22.5v-135q0 -14 -9.5 -23.5t-23.5 -9.5h-63q-13 0 -23 9.5t-10 23.5zM389 1210q0 -8 8 -8h6q9 0 9 8v76q0 8 -9 8h-6q-8 0 -8 -8v-76z" />
<glyph unicode="&#x152;" horiz-adv-x="3411" />
<glyph unicode="&#x178;" horiz-adv-x="1705" />
<glyph unicode="&#x2c6;" horiz-adv-x="1705" />
<glyph unicode="&#x2dc;" horiz-adv-x="1705" />
<glyph unicode="&#x2000;" horiz-adv-x="718" />
<glyph unicode="&#x2001;" horiz-adv-x="1436" />
<glyph unicode="&#x2002;" horiz-adv-x="718" />
<glyph unicode="&#x2003;" horiz-adv-x="1436" />
<glyph unicode="&#x2004;" horiz-adv-x="478" />
<glyph unicode="&#x2005;" horiz-adv-x="359" />
<glyph unicode="&#x2006;" horiz-adv-x="239" />
<glyph unicode="&#x2007;" horiz-adv-x="239" />
<glyph unicode="&#x2008;" horiz-adv-x="179" />
<glyph unicode="&#x2009;" horiz-adv-x="287" />
<glyph unicode="&#x200a;" horiz-adv-x="79" />
<glyph unicode="&#x2010;" horiz-adv-x="571" d="M59 471v66q0 12 10 22t23 10h336q13 0 23 -10t10 -22v-66q0 -13 -9.5 -23t-23.5 -10h-336q-14 0 -23.5 10t-9.5 23zM115 500q0 -8 8 -8h276q9 0 9 8v6q0 8 -9 8h-276q-8 0 -8 -8v-6z" />
<glyph unicode="&#x2011;" horiz-adv-x="571" d="M59 471v66q0 12 10 22t23 10h336q13 0 23 -10t10 -22v-66q0 -13 -9.5 -23t-23.5 -10h-336q-14 0 -23.5 10t-9.5 23zM115 500q0 -8 8 -8h276q9 0 9 8v6q0 8 -9 8h-276q-8 0 -8 -8v-6z" />
<glyph unicode="&#x2012;" horiz-adv-x="571" d="M59 471v66q0 12 10 22t23 10h336q13 0 23 -10t10 -22v-66q0 -13 -9.5 -23t-23.5 -10h-336q-14 0 -23.5 10t-9.5 23zM115 500q0 -8 8 -8h276q9 0 9 8v6q0 8 -9 8h-276q-8 0 -8 -8v-6z" />
<glyph unicode="&#x2013;" horiz-adv-x="1193" d="M59 471v66q0 12 25.5 22t58.5 10h856q33 0 58.5 -10t25.5 -22v-66q0 -13 -24 -23t-60 -10h-856q-36 0 -60 10t-24 23zM202 500q0 -8 20 -8h703q23 0 23 8v6q0 8 -23 8h-703q-20 0 -20 -8v-6z" />
<glyph unicode="&#x2014;" horiz-adv-x="2217" d="M59 471v66q0 12 51 22t117 10h1712q66 0 117 -10t51 -22v-66q0 -13 -48.5 -23t-119.5 -10h-1712q-71 0 -119.5 10t-48.5 23zM344 500q0 -8 41 -8h1406q46 0 46 8v6q0 8 -46 8h-1406q-41 0 -41 -8v-6z" />
<glyph unicode="&#x202f;" horiz-adv-x="287" />
<glyph unicode="&#x205f;" horiz-adv-x="359" />
<glyph unicode="&#x20ac;" horiz-adv-x="776" d="M59 342v66q0 13 9.5 22.5t23.5 9.5h103v131h-103q-14 0 -23.5 9.5t-9.5 23.5v66q0 12 10 22t23 10h103v74q0 98 68 167t165 69q98 0 167 -69t69 -167v-69q0 -12 -10 -22.5t-23 -10.5h-66q-12 0 -21 10.5t-9 22.5v69q0 44 -31.5 75.5t-75.5 31.5q-43 0 -73.5 -31.5 t-30.5 -75.5v-74h102q13 0 23 -10t10 -22v-66q0 -14 -9.5 -23.5t-23.5 -9.5h-102v-131h102q14 0 23.5 -9.5t9.5 -22.5v-66q0 -14 -9.5 -23.5t-23.5 -9.5h-102v-73q0 -44 30.5 -75.5t73.5 -31.5q44 0 75.5 31.5t31.5 75.5v75q0 13 9 23t21 10h66q13 0 23 -10t10 -23v-75 q0 -98 -69 -167t-167 -69q-97 0 -165 69t-68 167v73h-103q-14 0 -23.5 9.5t-9.5 23.5zM113 373q0 -8 8 -8h127v-129q0 -75 53 -129t127 -54q75 0 128.5 54t53.5 129v45q0 8 -8 8h-6q-8 0 -8 -8v-45q0 -66 -47 -113t-113 -47q-65 0 -111.5 47t-46.5 113v129h125q11 0 11 8v4 q0 10 -11 10h-125v238h125q11 0 11 10v4q0 8 -11 8h-125v129q0 66 46.5 113t111.5 47q66 0 113 -47t47 -113v-39q0 -8 8 -8h6q8 0 8 8v25v14q0 75 -53.5 128.5t-128.5 53.5q-74 0 -127 -53.5t-53 -128.5v-129h-127q-8 0 -8 -8v-4q0 -10 8 -10h127v-238h-127q-8 0 -8 -10v-4z " />
<glyph unicode="&#xe000;" horiz-adv-x="1013" d="M0 0v1014h1014v-1014h-1014z" />
</font>
</defs>
</svg>
