<svg xmlns="http://www.w3.org/2000/svg" xmlns:xlink="http://www.w3.org/1999/xlink" xmlns:a="http://ns.adobe.com/AdobeSVGViewerExtensions/3.0/" version="1.1" x="0px" y="0px" viewBox="-14.824 -4.83 100 100" overflow="visible" enable-background="new -14.824 -4.83 100 100" xml:space="preserve"><path d="M35.226,90.341c-0.017-0.024-0.033-0.05-0.05-0.074c-0.017,0.024-0.034,0.05-0.051,0.074H35.226z"></path><path d="M58.608,60.388l5.032,1.197c-2.235,2.557-3.993,4.394-3.993,4.394c-2.236,1.997-3.994,3.274-3.994,3.274  c-2.715,1.678-4.553,2.077-4.553,2.077c-1.677,0.24-3.151,0.242-3.151,0.242c-0.182-0.035-0.363-0.068-0.543-0.103  c-0.962-0.181-1.853-0.484-2.396-0.658c-0.438-0.142-0.679-0.269-0.679-0.269c-1.285-0.689-2.018-1.609-2.018-1.609  c-0.718-1.038-1.038-2.076-1.038-2.076c-0.318-1.119-0.479-2.716-0.479-2.716c-0.239-2.316-0.479-4.713-0.479-4.713  c-0.559-12.062-0.798-25.881-0.798-25.881c-0.08-9.105-0.16-12.221-0.16-12.221c0.479-0.878,1.119-1.677,1.119-1.677  c0.798-0.32,2.235-0.719,2.235-0.719c3.675-0.479,6.471-0.719,6.471-0.719c1.175,0,2.67-0.373,3.555,0.639  c0.399,0.219,0.719,0.303,1.098,0.05c0.84-0.56,0.843-1.325,0.967-2.261c0.067-0.514,0.172-1.103,0.133-1.623  c-0.16-2.157-0.241-3.435-0.241-3.435c-0.26-0.297-0.604-0.736-0.997-0.862c-0.917-0.293-1.415,0.423-2.038,0.942  c-0.479,0.399-1.038,0.399-1.038,0.399c-3.674-0.16-6.23-0.639-6.23-0.639c-2.875-0.559-4.233-0.719-4.233-0.719  c-0.799-0.399-1.118-1.358-1.118-1.358C38.64,8.387,38.64,7.029,38.64,7.029c0-0.958,0.159-1.837,0.159-1.837  c0.479-0.479,0.56-1.039,0.56-1.039c-0.16-1.118-0.56-1.996-0.56-1.996C38,1.278,37.281,0.639,37.281,0.639  C36.403,0.16,35.524,0,35.524,0h-0.698c0,0-0.878,0.16-1.757,0.639c0,0-0.719,0.639-1.517,1.518c0,0-0.4,0.878-0.56,1.996  c0,0,0.08,0.56,0.56,1.039c0,0,0.16,0.879,0.16,1.837c0,0,0,1.358-0.4,2.317c0,0-0.319,0.958-1.118,1.358  c0,0-1.358,0.16-4.234,0.719c0,0-2.556,0.479-6.23,0.639c0,0-0.56,0-1.039-0.399c-0.423-0.352-0.89-0.937-1.462-1.022  c-0.678-0.101-1.174,0.486-1.573,0.942c0,0-0.08,1.278-0.239,3.435c0.026,0.626,0.074,1.259,0.166,1.88  c0.062,0.422,0.059,0.964,0.263,1.347c0.273,0.515,1.22,1.233,1.768,0.607c0.832-0.95,2.429-0.639,3.555-0.639  c0,0,2.796,0.239,6.47,0.719c0,0,1.438,0.399,2.237,0.719c0,0,0.639,0.798,1.118,1.677c0,0-0.08,3.116-0.16,12.221  c0,0-0.24,13.82-0.799,25.881c0,0-0.24,2.396-0.479,4.713c0,0-0.161,1.597-0.48,2.716c0,0-0.319,1.038-1.038,2.076  c0,0-0.731,0.92-2.017,1.609c0,0-0.241,0.127-0.679,0.269c-0.544,0.174-1.434,0.478-2.396,0.658  c-0.18,0.034-0.361,0.067-0.542,0.103c0,0-1.475-0.002-3.152-0.242c0,0-1.837-0.399-4.553-2.077c0,0-1.757-1.277-3.994-3.274  c0,0-1.757-1.837-3.994-4.394l5.033-1.197L0,54.996l1.079,17.134l2.156-6.23c0,0,0.959,2.548,2.875,5.632  c1.056,1.697,2.636,3.485,3.954,5.271c0,0,2.006,2.545,5.392,4.194c2.254,1.097,5.203,1.294,8.268,1.917  c0,0,4.361-0.189,7.788,2.037c1.659,1.078,2.506,3.655,3.664,5.317c1.158-1.662,2.004-4.239,3.664-5.317  c3.427-2.227,7.787-2.037,7.787-2.037c3.064-0.623,6.015-0.82,8.268-1.917c3.385-1.649,5.392-4.194,5.392-4.194  c1.319-1.785,2.899-3.573,3.954-5.271c1.916-3.084,2.876-5.632,2.876-5.632l2.156,6.23l1.079-17.134L58.608,60.388z M35.176,5.174  c-0.727,0-1.315-0.589-1.315-1.315c0-0.727,0.588-1.315,1.315-1.315c0.726,0,1.315,0.589,1.315,1.315  C36.491,4.585,35.902,5.174,35.176,5.174z"></path></svg>